<?xml version="1.0" encoding="UTF-8" ?>
<!DOCTYPE svg PUBLIC "-//W3C//DTD SVG 1.1//EN" "http://www.w3.org/Graphics/SVG/1.1/DTD/svg11.dtd">
<svg width="1023pt" height="787pt" viewBox="0 0 1023 787" version="1.1" xmlns="http://www.w3.org/2000/svg">
<g id="#e0dfdfff">
<path fill="#e0dfdf" opacity="1.00" d=" M 692.03 148.89 C 705.60 149.20 719.13 150.67 732.26 154.21 C 731.83 160.83 730.95 167.41 729.91 173.95 C 716.18 174.83 702.43 174.99 688.70 175.61 C 689.36 166.66 690.51 157.74 692.03 148.89 Z" />
<path fill="#e0dfdf" opacity="1.00" d=" M 644.38 156.49 C 656.55 151.22 669.98 150.42 683.04 149.87 C 679.88 158.50 676.76 167.15 673.80 175.85 C 652.11 176.98 630.40 177.62 608.69 177.88 C 620.26 170.26 631.52 161.88 644.38 156.49 Z" />
<path fill="#e0dfdf" opacity="1.00" d=" M 267.69 157.71 C 282.02 150.06 298.97 154.20 314.37 153.01 C 313.40 161.76 311.72 170.41 310.06 179.04 C 288.56 180.05 267.04 180.78 245.52 181.41 C 246.65 176.96 247.24 171.96 250.40 168.40 C 255.58 163.99 261.63 160.74 267.69 157.71 Z" />
<path fill="#e0dfdf" opacity="1.00" d=" M 322.39 153.32 C 333.25 153.04 344.13 152.52 354.99 153.12 C 360.52 153.59 365.06 157.44 368.47 161.55 C 371.44 166.22 371.15 172.12 372.41 177.35 C 354.88 178.23 337.32 177.91 319.80 179.07 C 320.44 170.47 321.44 161.90 322.39 153.32 Z" />
<path fill="#e0dfdf" opacity="1.00" d=" M 734.27 155.62 C 741.96 160.77 749.48 166.38 755.44 173.54 C 747.87 173.66 740.29 173.88 732.73 174.03 C 733.04 167.87 733.67 161.75 734.27 155.62 Z" />
<path fill="#e0dfdf" opacity="1.00" d=" M 103.86 164.90 C 108.15 164.94 112.45 165.01 116.75 165.10 C 121.38 178.10 126.45 190.95 131.20 203.91 C 126.81 203.95 122.44 203.96 118.06 203.97 C 117.58 202.01 117.10 200.05 116.65 198.10 C 112.19 198.07 107.75 198.04 103.30 198.05 C 102.86 200.01 102.41 201.98 101.94 203.94 C 97.58 203.95 93.22 203.98 88.86 203.96 C 93.89 190.95 98.43 177.75 103.86 164.90 M 109.65 177.62 C 108.59 181.37 107.56 185.13 106.68 188.93 C 108.39 188.91 111.82 188.86 113.53 188.84 C 112.47 185.02 111.21 181.26 109.65 177.62 Z" />
<path fill="#e0dfdf" opacity="1.00" d=" M 906.27 165.49 C 916.03 165.28 925.79 164.94 935.57 165.17 C 935.67 168.08 935.93 171.03 936.09 173.97 C 930.01 173.98 923.97 174.01 917.92 174.03 C 918.04 175.69 918.29 179.01 918.41 180.67 C 923.25 180.47 928.11 180.29 932.95 180.05 C 932.96 182.66 932.97 185.27 933.00 187.88 C 928.10 187.99 923.27 188.05 918.40 188.25 C 918.18 193.49 918.00 198.74 917.85 203.99 C 913.88 203.99 909.92 203.99 905.99 204.00 C 905.98 191.16 905.87 178.32 906.27 165.49 Z" />
<path fill="#e0dfdf" opacity="1.00" d=" M 729.01 182.60 C 734.32 181.61 739.84 180.72 745.13 182.33 C 745.11 183.40 745.08 185.54 745.07 186.62 C 739.70 187.44 734.18 188.03 728.88 186.58 C 728.91 185.58 728.98 183.60 729.01 182.60 M 730.22 184.60 C 735.04 185.07 739.91 185.08 744.76 184.81 C 740.37 181.54 734.80 181.92 730.22 184.60 Z" />
<path fill="#e0dfdf" opacity="1.00" d=" M 659.82 187.96 C 664.14 181.67 673.89 181.56 678.17 187.96 C 672.22 189.91 665.76 189.92 659.82 187.96 M 662.05 186.66 C 666.09 188.77 670.69 188.36 675.11 188.37 C 674.94 187.51 674.61 185.78 674.44 184.91 C 670.28 185.30 666.13 185.84 662.05 186.66 Z" />
<path fill="#e0dfdf" opacity="1.00" d=" M 358.98 187.04 L 364.35 187.32 C 362.78 187.75 361.22 188.18 359.66 188.61 C 361.47 189.76 363.30 190.87 365.12 192.01 C 363.10 191.65 361.08 191.27 359.07 190.90 C 359.03 189.61 359.01 188.33 358.98 187.04 Z" />
<path fill="#e0dfdf" opacity="1.00" d=" M 364.78 187.16 C 366.18 187.10 367.60 187.04 369.02 186.98 C 368.99 188.30 368.97 189.63 368.95 190.95 C 368.25 190.98 366.85 191.02 366.15 191.04 C 366.78 190.18 367.41 189.32 368.05 188.47 C 366.96 188.03 365.86 187.59 364.78 187.16 Z" />
<path fill="#e0dfdf" opacity="1.00" d=" M 301.88 187.95 C 303.47 188.09 305.07 188.24 306.67 188.41 C 306.67 189.47 306.67 190.53 306.67 191.59 C 305.07 191.75 303.47 191.90 301.88 192.05 C 303.01 191.36 304.14 190.68 305.27 190.00 C 304.14 189.31 303.01 188.63 301.88 187.95 Z" />
<path fill="#e0dfdf" opacity="1.00" d=" M 296.40 189.77 C 297.51 188.76 299.83 190.38 299.08 191.75 C 297.93 192.91 295.47 191.23 296.40 189.77 Z" />
<path fill="#e0dfdf" opacity="1.00" d=" M 760.42 199.46 C 769.26 196.90 779.40 201.52 782.89 210.02 C 788.23 220.34 781.07 234.69 769.58 236.56 C 759.26 239.47 748.22 231.60 746.56 221.35 C 744.57 211.95 751.18 201.68 760.42 199.46 M 763.40 200.53 C 757.92 201.00 752.78 204.30 750.20 209.18 C 746.16 215.51 747.99 224.05 752.15 229.86 C 757.43 234.36 765.45 237.85 772.12 234.14 C 781.57 230.89 785.92 218.56 781.08 209.95 C 778.26 203.20 770.44 199.63 763.40 200.53 Z" />
<path fill="#e0dfdf" opacity="1.00" d=" M 544.43 200.50 C 551.98 198.55 560.49 200.21 565.33 206.68 C 573.97 216.28 568.77 234.17 555.98 236.93 C 546.98 240.12 536.08 235.06 532.91 226.04 C 528.40 216.34 534.26 203.53 544.43 200.50 M 547.45 201.51 C 541.23 202.32 536.09 207.20 533.95 212.96 C 529.74 223.42 538.33 236.89 550.03 236.04 C 559.34 236.95 568.55 228.52 567.92 219.00 C 569.12 208.33 557.60 199.14 547.45 201.51 Z" />
<path fill="#e0dfdf" opacity="1.00" d=" M 215.86 211.48 C 220.58 211.81 224.85 213.90 228.40 216.89 C 224.10 215.38 220.02 213.32 215.86 211.48 Z" />
<path fill="#e0dfdf" opacity="1.00" d=" M 361.52 216.66 C 365.51 212.94 370.92 212.13 376.16 211.63 C 371.23 213.18 366.41 215.02 361.52 216.66 Z" />
<path fill="#e0dfdf" opacity="1.00" d=" M 377.15 213.40 C 381.14 212.58 376.30 217.38 377.15 213.40 Z" />
<path fill="#e0dfdf" opacity="1.00" d=" M 204.55 222.14 C 205.65 219.16 207.37 216.45 209.74 214.33 C 208.22 217.07 206.48 219.67 204.55 222.14 Z" />
<path fill="#e0dfdf" opacity="1.00" d=" M 381.69 216.49 C 383.14 215.65 384.69 218.14 383.58 219.24 C 382.14 220.03 380.61 217.58 381.69 216.49 Z" />
<path fill="#e0dfdf" opacity="1.00" d=" M 228.38 218.67 C 229.79 217.89 231.00 220.32 229.77 221.18 C 228.39 221.91 227.18 219.51 228.38 218.67 Z" />
<path fill="#e0dfdf" opacity="1.00" d=" M 361.02 233.44 C 359.31 228.23 358.28 222.50 360.88 217.41 C 360.77 222.75 360.67 228.10 361.02 233.44 Z" />
<path fill="#e0dfdf" opacity="1.00" d=" M 384.12 221.53 C 388.05 222.31 381.82 224.97 384.12 221.53 Z" />
<path fill="#e0dfdf" opacity="1.00" d=" M 204.09 222.71 C 204.73 225.21 205.28 227.73 205.67 230.29 C 204.94 227.81 204.44 225.27 204.09 222.71 Z" />
<path fill="#e0dfdf" opacity="1.00" d=" M 230.17 223.80 C 231.59 223.34 232.09 225.74 230.83 226.20 C 229.41 226.65 228.90 224.25 230.17 223.80 Z" />
<path fill="#e0dfdf" opacity="1.00" d=" M 384.17 225.80 C 385.58 225.34 386.09 227.74 384.83 228.20 C 383.41 228.65 382.90 226.25 384.17 225.80 Z" />
<path fill="#e0dfdf" opacity="1.00" d=" M 229.20 228.67 C 230.84 228.73 230.44 231.45 228.96 231.49 C 227.31 231.41 227.77 228.75 229.20 228.67 Z" />
<path fill="#e0dfdf" opacity="1.00" d=" M 206.15 231.40 C 210.14 230.58 205.30 235.38 206.15 231.40 Z" />
<path fill="#e0dfdf" opacity="1.00" d=" M 221.90 237.18 C 223.69 235.79 225.54 234.49 227.45 233.27 C 225.72 234.74 223.85 236.03 221.90 237.18 Z" />
<path fill="#e0dfdf" opacity="1.00" d=" M 210.54 235.27 C 211.41 234.13 213.38 235.59 212.46 236.73 C 211.58 237.87 209.62 236.41 210.54 235.27 Z" />
<path fill="#e0dfdf" opacity="1.00" d=" M 366.54 236.97 C 369.47 237.14 372.41 237.35 375.35 237.61 C 372.33 237.41 369.49 237.40 366.54 236.97 Z" />
<path fill="#e0dfdf" opacity="1.00" d=" M 215.12 237.31 C 216.36 236.25 218.64 236.25 219.88 237.31 C 219.48 238.94 215.52 238.94 215.12 237.31 Z" />
<path fill="#e0dfdf" opacity="1.00" d=" M 662.92 267.09 C 682.56 267.16 702.18 265.85 721.84 265.96 C 721.91 276.30 722.77 286.59 723.59 296.90 C 703.69 297.85 683.81 299.10 663.91 300.11 C 663.20 289.12 662.96 278.10 662.92 267.09 Z" />
<path fill="#e0dfdf" opacity="1.00" d=" M 731.82 265.98 C 745.84 265.94 759.89 265.92 773.88 267.21 C 779.89 267.94 786.16 269.26 791.21 272.79 C 796.23 279.52 798.97 287.64 801.89 295.45 C 779.99 296.51 758.04 295.36 736.17 296.96 C 734.74 286.63 732.98 276.35 731.82 265.98 Z" />
<path fill="#e0dfdf" opacity="1.00" d=" M 621.33 273.45 C 631.41 269.25 642.39 268.15 653.12 266.76 C 652.69 278.02 651.85 289.27 650.69 300.49 C 626.23 302.20 601.87 305.53 577.33 305.83 C 583.60 298.53 591.49 292.92 599.01 286.99 C 605.89 281.67 613.07 276.43 621.33 273.45 Z" />
<path fill="#e0dfdf" opacity="1.00" d=" M 332.99 280.15 C 348.64 280.14 364.65 277.18 380.06 280.96 C 386.96 285.60 388.17 295.40 386.95 303.05 C 368.19 302.72 349.50 304.69 330.80 305.84 C 331.42 297.26 331.95 288.68 332.99 280.15 Z" />
<path fill="#e0dfdf" opacity="1.00" d=" M 277.75 291.75 C 292.55 283.56 309.65 281.03 326.30 279.84 C 324.49 288.64 322.12 297.31 319.85 306.00 C 299.20 307.82 278.50 309.26 257.80 310.43 C 261.84 301.91 270.07 296.64 277.75 291.75 Z" />
<path fill="#e0dfdf" opacity="1.00" d=" M 115.74 289.82 C 120.48 289.08 125.64 292.70 126.56 297.43 C 128.04 301.59 125.71 305.25 123.78 308.64 C 126.07 311.35 128.73 314.25 128.87 317.99 C 128.79 322.70 125.67 328.08 120.61 328.47 C 111.57 329.27 102.49 329.17 93.42 329.50 C 91.93 316.37 92.87 303.14 93.05 289.98 C 100.60 289.99 108.20 290.75 115.74 289.82 M 106.46 298.07 C 106.66 300.80 106.85 303.54 106.77 306.28 C 109.57 305.52 112.35 304.71 115.11 303.81 C 113.63 300.24 110.73 297.75 106.46 298.07 M 106.65 312.64 C 105.93 315.15 105.35 317.69 104.77 320.24 C 108.54 320.21 112.33 320.14 116.07 319.58 C 116.05 317.95 116.04 316.33 116.02 314.71 C 112.92 313.97 109.78 313.25 106.65 312.64 Z" />
<path fill="#e0dfdf" opacity="1.00" d=" M 906.24 290.44 C 911.45 290.67 916.69 290.90 921.94 291.10 C 923.77 298.19 925.46 305.36 927.57 312.39 C 929.51 305.30 931.40 298.21 933.24 291.10 C 938.68 291.04 944.14 291.00 949.62 290.96 C 948.92 303.62 948.94 316.31 948.96 329.00 C 946.49 329.00 941.55 329.00 939.07 329.00 C 938.99 320.56 938.92 312.12 938.76 303.69 C 936.56 312.14 934.48 320.62 932.18 329.04 C 928.96 328.98 926.13 329.04 923.02 328.99 C 920.80 320.21 918.64 311.42 916.38 302.66 C 916.09 311.43 915.99 320.21 915.93 329.00 C 913.44 329.00 908.47 329.00 905.99 329.00 C 905.99 316.14 905.88 303.28 906.24 290.44 Z" />
<path fill="#e0dfdf" opacity="1.00" d=" M 660.08 308.62 C 666.61 307.47 674.11 305.23 679.97 309.40 C 673.43 310.65 666.28 311.61 660.08 308.62 M 669.00 308.22 C 668.65 310.02 672.34 310.02 672.00 308.22 C 671.42 307.15 669.56 307.15 669.00 308.22 Z" />
<path fill="#e0dfdf" opacity="1.00" d=" M 638.08 309.54 C 644.63 308.47 652.07 306.47 657.95 310.55 C 651.37 311.61 644.04 313.48 638.08 309.54 M 643.61 310.51 C 646.92 310.52 650.06 310.29 653.41 310.15 C 650.14 309.90 646.85 310.00 643.61 310.51 Z" />
<path fill="#e0dfdf" opacity="1.00" d=" M 367.37 310.31 C 370.73 310.22 374.15 310.16 377.54 310.15 C 377.77 311.61 378.00 313.07 378.23 314.54 C 374.50 315.25 370.70 315.54 366.90 315.45 C 367.04 313.73 367.20 312.02 367.37 310.31 M 367.25 313.23 C 370.38 313.53 373.48 313.64 376.64 313.83 C 376.60 313.09 376.50 311.61 376.45 310.88 C 373.34 311.54 370.23 312.15 367.25 313.23 Z" />
<path fill="#e0dfdf" opacity="1.00" d=" M 309.02 314.71 C 312.67 314.61 316.33 314.51 320.00 314.60 C 319.99 316.16 319.98 317.72 319.98 319.29 C 316.32 319.38 312.66 319.49 309.00 319.40 C 309.00 317.84 309.01 316.27 309.02 314.71 M 311.64 315.52 C 310.16 315.63 309.63 316.43 310.05 317.93 C 313.32 318.91 316.73 318.26 319.97 317.53 C 317.41 316.28 314.59 314.49 311.64 315.52 Z" />
<path fill="#e0dfdf" opacity="1.00" d=" M 87.40 322.15 C 88.80 321.71 89.29 322.19 88.85 323.60 C 87.45 324.03 86.97 323.54 87.40 322.15 Z" />
<path fill="#e0dfdf" opacity="1.00" d=" M 225.43 334.44 C 234.38 331.98 243.64 341.12 243.00 350.04 C 243.72 358.49 235.25 365.90 226.96 364.96 C 219.84 364.89 213.02 358.79 212.58 351.58 C 211.01 343.45 217.39 335.49 225.43 334.44 M 223.44 336.49 C 212.69 338.70 210.62 354.67 219.28 360.69 C 226.51 367.56 240.00 362.11 241.67 352.67 C 244.13 342.82 233.32 332.43 223.44 336.49 Z" />
<path fill="#e0dfdf" opacity="1.00" d=" M 389.43 334.45 C 397.36 331.98 406.95 338.11 407.57 346.44 C 410.15 356.37 400.47 366.56 390.33 364.68 C 385.04 363.08 379.00 360.07 377.96 353.99 C 374.70 345.82 380.85 335.72 389.43 334.45 M 390.41 335.53 C 385.60 335.89 382.01 339.78 379.71 343.68 C 376.25 350.37 379.74 359.57 387.01 362.01 C 396.31 367.46 408.44 357.56 406.51 347.41 C 406.16 339.74 397.77 334.08 390.41 335.53 Z" />
<path fill="#e0dfdf" opacity="1.00" d=" M 568.23 334.54 C 577.24 334.76 584.83 343.62 583.47 352.58 C 582.84 361.51 573.41 368.49 564.61 366.53 C 556.49 365.10 549.75 356.26 551.83 347.99 C 553.42 340.48 560.21 334.11 568.23 334.54 M 565.37 336.43 C 557.69 337.68 551.62 345.75 553.60 353.54 C 554.25 358.23 557.54 362.29 561.98 364.00 C 570.37 368.17 582.05 361.44 582.15 352.02 C 583.68 342.60 574.06 335.19 565.37 336.43 Z" />
<path fill="#e0dfdf" opacity="1.00" d=" M 754.44 335.48 C 762.96 332.62 773.13 338.65 774.55 347.43 C 776.57 353.60 773.10 359.62 768.79 363.75 C 761.19 369.25 748.97 366.90 744.82 358.13 C 739.67 349.71 745.33 337.95 754.44 335.48 M 756.43 336.49 C 744.84 337.57 740.26 355.61 750.06 361.93 C 756.71 367.70 768.90 365.64 772.03 357.02 C 778.13 347.31 767.32 333.69 756.43 336.49 Z" />
<path fill="#e0dfdf" opacity="1.00" d=" M 53.15 346.40 C 57.14 345.58 52.30 350.38 53.15 346.40 Z" />
<path fill="#e0dfdf" opacity="1.00" d=" M 690.23 389.14 C 704.76 389.06 719.27 388.15 733.81 387.97 C 735.72 397.32 737.79 406.65 739.90 415.98 C 722.70 416.87 705.48 417.41 688.26 418.10 C 689.07 408.46 689.74 398.80 690.23 389.14 Z" />
<path fill="#e0dfdf" opacity="1.00" d=" M 739.73 388.06 C 750.16 387.98 760.60 387.57 771.03 388.08 C 775.56 388.17 776.56 393.48 778.52 396.60 C 780.67 400.79 782.82 407.47 776.95 409.93 C 768.27 417.65 755.67 414.17 745.17 415.06 C 743.44 406.04 741.46 397.07 739.73 388.06 Z" />
<path fill="#e0dfdf" opacity="1.00" d=" M 650.07 395.09 C 660.47 388.45 673.45 389.60 685.19 388.83 C 683.61 398.86 681.74 408.84 679.77 418.80 C 659.68 419.83 639.64 421.62 619.55 422.73 C 626.85 410.83 638.16 402.03 650.07 395.09 Z" />
<path fill="#e0dfdf" opacity="1.00" d=" M 287.38 412.42 C 298.30 407.50 310.36 406.06 322.15 404.83 C 320.87 413.04 319.26 421.19 317.53 429.33 C 297.51 430.04 277.52 431.63 257.50 432.52 C 266.60 424.66 276.52 417.63 287.38 412.42 Z" />
<path fill="#e0dfdf" opacity="1.00" d=" M 330.02 404.92 C 339.49 405.00 349.09 404.63 358.43 406.55 C 368.44 408.26 377.42 413.24 386.24 418.00 C 385.67 420.83 385.19 423.75 384.61 426.60 C 365.67 427.06 346.75 427.90 327.84 429.04 C 328.42 420.98 329.21 412.95 330.02 404.92 Z" />
<path fill="#e0dfdf" opacity="1.00" d=" M 806.59 435.38 C 806.32 428.12 806.26 420.87 806.41 413.62 C 806.65 420.86 806.71 428.12 806.59 435.38 Z" />
<path fill="#e0dfdf" opacity="1.00" d=" M 94.83 421.77 C 100.47 415.04 110.08 413.84 118.16 415.75 C 124.16 417.16 126.94 422.84 129.53 427.80 C 126.10 428.30 122.69 429.11 119.23 429.20 C 115.91 427.54 113.07 423.13 108.87 424.74 C 102.81 426.38 103.84 434.26 103.97 438.99 C 104.22 442.86 107.93 446.43 111.89 445.94 C 115.63 444.93 117.26 440.88 119.68 438.26 C 122.99 439.52 126.30 440.80 129.60 442.11 C 127.69 447.51 124.33 452.80 118.38 454.39 C 112.14 455.29 105.02 456.12 99.40 452.52 C 90.16 445.39 88.95 431.37 94.83 421.77 Z" />
<path fill="#e0dfdf" opacity="1.00" d=" M 922.13 419.00 C 926.07 418.99 930.04 418.99 934.02 419.00 C 933.91 428.28 934.59 437.62 933.77 446.89 C 931.80 460.29 908.85 462.26 904.48 449.63 C 903.69 447.80 903.08 445.90 902.46 444.02 C 906.17 443.69 909.86 443.18 913.63 443.30 C 915.02 444.98 916.05 446.94 917.21 448.80 C 918.05 448.89 919.73 449.07 920.57 449.16 C 922.11 439.19 922.01 429.05 922.13 419.00 Z" />
<path fill="#e0dfdf" opacity="1.00" d=" M 723.89 423.54 C 728.37 423.49 732.94 423.47 737.22 425.04 C 734.24 429.07 729.22 430.31 724.40 429.13 C 724.21 427.26 724.04 425.39 723.89 423.54 M 724.04 425.64 C 727.03 426.98 730.17 427.59 733.38 428.29 C 733.56 427.35 733.90 425.48 734.08 424.54 C 730.71 424.84 727.37 425.18 724.04 425.64 Z" />
<path fill="#e0dfdf" opacity="1.00" d=" M 663.02 426.50 C 667.47 426.48 672.01 426.50 676.25 428.06 C 673.17 432.40 667.68 431.64 663.00 431.56 C 663.00 429.87 663.01 428.18 663.02 426.50 M 663.59 429.75 C 666.50 430.52 669.42 430.71 672.43 431.13 C 672.60 430.24 672.94 428.45 673.11 427.56 C 670.01 427.81 665.17 426.15 663.59 429.75 Z" />
<path fill="#e0dfdf" opacity="1.00" d=" M 362.86 433.38 C 368.10 431.12 373.79 431.76 379.26 432.83 C 377.98 434.92 377.19 437.78 374.66 438.71 C 370.67 439.30 366.73 438.61 362.90 437.61 C 362.89 436.55 362.87 434.44 362.86 433.38 M 362.98 435.11 C 367.31 438.70 373.05 437.41 377.95 435.85 C 373.59 432.11 367.93 433.25 362.98 435.11 Z" />
<path fill="#e0dfdf" opacity="1.00" d=" M 299.75 437.60 C 305.39 434.51 312.27 434.62 317.25 438.94 C 312.95 443.23 306.74 442.80 301.15 442.35 C 300.69 440.76 300.21 439.18 299.75 437.60 M 300.95 438.30 C 303.06 439.86 305.26 441.76 308.00 441.97 C 310.79 441.79 312.98 439.81 315.10 438.20 C 310.43 437.10 305.64 437.69 300.95 438.30 Z" />
<path fill="#e0dfdf" opacity="1.00" d=" M 805.23 436.82 C 806.60 436.08 807.80 438.48 806.62 439.33 C 805.20 440.10 803.99 437.68 805.23 436.82 Z" />
<path fill="#e0dfdf" opacity="1.00" d=" M 808.15 440.40 C 812.14 439.58 807.29 444.38 808.15 440.40 Z" />
<path fill="#e0dfdf" opacity="1.00" d=" M 580.43 456.47 C 586.63 455.02 593.41 457.94 596.91 463.13 C 599.89 468.26 600.49 475.08 597.32 480.28 C 592.46 488.50 579.24 490.89 572.71 483.29 C 563.56 475.53 568.45 458.08 580.43 456.47 M 578.40 458.37 C 572.33 460.81 567.87 467.95 569.49 474.57 C 569.93 479.37 573.74 482.98 577.63 485.38 C 586.42 489.30 597.85 482.70 597.98 473.04 C 599.14 462.86 588.06 454.55 578.40 458.37 Z" />
<path fill="#e0dfdf" opacity="1.00" d=" M 749.42 456.49 C 760.64 453.99 771.34 466.08 767.06 476.95 C 764.07 488.97 746.26 491.52 739.43 481.61 C 732.37 472.86 737.74 457.59 749.42 456.49 M 751.20 457.51 C 746.15 458.17 740.70 460.80 738.98 465.96 C 735.28 473.93 739.89 484.72 749.01 486.10 C 758.94 488.96 768.77 478.71 765.98 468.95 C 765.71 461.64 757.78 457.36 751.20 457.51 Z" />
<path fill="#e0dfdf" opacity="1.00" d=" M 224.78 462.18 C 234.78 462.11 243.03 474.12 237.04 483.02 C 232.53 493.53 214.82 492.32 211.65 481.33 C 208.08 472.35 215.21 462.04 224.78 462.18 M 221.40 464.38 C 212.08 466.07 209.20 479.91 216.24 485.77 C 221.54 490.85 231.74 489.88 235.35 483.31 C 237.49 479.82 237.13 475.33 236.53 471.48 C 234.15 465.86 227.37 462.46 221.40 464.38 Z" />
<path fill="#e0dfdf" opacity="1.00" d=" M 388.67 462.31 C 396.41 462.77 403.47 469.94 402.10 478.03 C 401.70 487.65 390.14 492.93 381.97 489.01 C 373.46 485.98 371.44 473.65 377.22 467.22 C 379.68 463.45 384.55 462.85 388.67 462.31 M 384.41 464.37 C 374.00 466.39 372.15 481.86 381.02 486.98 C 388.28 492.46 399.28 486.97 400.55 478.39 C 402.62 469.61 392.83 461.50 384.41 464.37 Z" />
<path fill="#e0dfdf" opacity="1.00" d=" M 281.70 555.70 C 301.58 539.65 326.53 529.12 352.30 528.84 C 350.04 536.48 347.50 544.06 345.61 551.82 C 324.33 553.60 302.98 553.97 281.70 555.70 Z" />
<path fill="#e0dfdf" opacity="1.00" d=" M 359.97 528.77 C 371.79 528.47 383.59 529.74 394.96 532.97 C 394.97 538.95 394.99 544.95 395.01 550.94 C 382.58 551.02 370.12 550.66 357.75 552.03 C 358.10 544.24 359.03 536.50 359.97 528.77 Z" />
<path fill="#e0dfdf" opacity="1.00" d=" M 397.00 533.49 C 406.04 536.78 415.64 540.96 420.57 549.81 C 412.32 550.72 404.01 550.93 395.74 551.24 C 396.04 545.30 396.29 539.39 397.00 533.49 Z" />
<path fill="#e0dfdf" opacity="1.00" d=" M 93.00 540.88 C 103.23 541.66 114.97 538.34 123.82 545.19 C 130.96 554.60 131.35 572.62 119.04 577.96 C 110.56 579.89 101.67 578.84 93.00 579.05 C 92.99 566.32 92.99 553.60 93.00 540.88 M 105.08 549.22 C 105.03 556.66 105.03 564.11 105.07 571.57 C 108.24 570.67 112.20 571.13 114.63 568.65 C 117.40 563.96 117.31 557.82 114.99 552.97 C 113.15 549.50 108.03 550.39 105.08 549.22 Z" />
<path fill="#e0dfdf" opacity="1.00" d=" M 910.22 547.22 C 916.20 540.79 926.27 541.72 934.07 542.88 C 939.68 542.76 941.49 548.48 944.58 551.91 C 936.45 553.30 928.41 551.69 920.43 550.24 C 921.27 551.67 921.44 553.95 923.23 554.58 C 928.89 556.60 935.15 556.80 940.65 559.36 C 946.72 562.88 946.64 573.13 940.86 576.88 C 933.71 581.60 924.38 581.60 916.30 579.66 C 911.18 578.20 907.48 574.00 906.00 569.02 C 910.17 569.15 914.54 567.98 918.75 568.63 C 920.91 569.54 922.68 571.15 924.56 572.53 C 926.90 572.30 929.54 572.24 931.96 572.06 C 931.97 570.61 932.01 569.17 932.05 567.74 C 925.49 565.63 918.24 565.31 912.33 561.56 C 907.32 558.83 906.26 551.23 910.22 547.22 Z" />
<path fill="#e0dfdf" opacity="1.00" d=" M 392.95 558.30 C 398.33 554.81 404.86 555.53 410.98 555.57 C 410.98 557.15 410.99 558.75 410.99 560.35 C 404.93 560.43 398.13 562.38 392.95 558.30 M 395.20 558.57 C 400.40 559.72 405.79 559.45 411.03 558.57 C 406.24 555.34 400.27 556.89 395.20 558.57 Z" />
<path fill="#e0dfdf" opacity="1.00" d=" M 328.03 557.68 C 334.08 556.48 340.55 555.20 346.31 558.15 C 342.45 564.51 334.03 563.22 327.86 561.59 C 327.90 560.61 327.99 558.66 328.03 557.68 M 328.21 559.56 C 333.45 562.16 339.44 561.18 344.89 559.75 C 339.95 556.07 333.53 557.63 328.21 559.56 Z" />
<path fill="#e0dfdf" opacity="1.00" d=" M 710.87 572.72 C 715.52 566.68 724.22 567.24 730.00 571.31 C 724.83 576.21 716.93 575.48 710.87 572.72 M 714.48 570.30 C 714.35 571.03 714.07 572.51 713.93 573.24 C 718.31 573.36 722.71 573.26 727.10 573.11 C 726.95 572.39 726.64 570.96 726.49 570.24 C 722.47 570.25 718.46 570.25 714.48 570.30 Z" />
<path fill="#e0dfdf" opacity="1.00" d=" M 605.67 577.35 C 619.62 576.62 630.60 593.52 623.76 605.79 C 619.34 616.69 604.42 620.49 594.98 614.01 C 584.75 607.88 582.71 591.82 591.66 583.67 C 594.97 579.28 600.45 577.82 605.67 577.35 M 601.43 579.47 C 593.28 580.88 587.92 589.32 587.04 597.07 C 587.06 606.46 594.74 615.03 604.13 615.66 C 614.56 617.16 625.01 607.53 624.04 597.03 C 624.80 585.52 612.22 576.48 601.43 579.47 Z" />
<path fill="#e0dfdf" opacity="1.00" d=" M 776.29 577.28 C 787.30 576.69 796.51 586.39 796.93 597.08 C 796.52 607.34 787.92 617.86 776.96 616.95 C 766.31 618.17 755.78 607.75 757.17 596.99 C 756.15 586.37 766.40 577.84 776.29 577.28 M 772.43 579.47 C 762.74 581.32 755.86 592.50 759.00 601.99 C 761.04 611.76 772.54 618.40 781.99 614.99 C 792.81 612.53 798.45 598.45 793.09 588.95 C 789.69 581.33 780.41 577.36 772.43 579.47 Z" />
<path fill="#e0dfdf" opacity="1.00" d=" M 223.44 580.52 C 232.83 577.99 242.89 585.07 244.54 594.43 C 247.17 604.89 238.10 617.09 226.96 615.98 C 212.90 618.05 204.03 600.11 211.03 589.02 C 213.41 584.31 218.28 581.19 223.44 580.52 M 224.45 581.55 C 219.73 582.07 215.36 584.80 212.75 588.75 C 206.80 597.17 210.72 611.12 220.97 614.04 C 230.61 618.15 242.11 610.70 243.47 600.61 C 245.29 590.09 235.13 579.21 224.45 581.55 Z" />
<path fill="#e0dfdf" opacity="1.00" d=" M 417.43 580.47 C 426.24 578.09 436.36 583.24 438.92 592.11 C 443.41 603.01 433.97 616.95 422.01 615.93 C 412.22 616.81 403.08 607.73 403.88 598.00 C 403.25 590.00 409.50 581.88 417.43 580.47 M 418.44 581.47 C 408.69 583.19 402.00 594.79 406.03 604.02 C 408.51 609.97 414.37 614.81 420.97 614.95 C 431.39 615.83 440.95 604.89 438.35 594.67 C 436.68 586.06 427.18 579.05 418.44 581.47 Z" />
<path fill="#e0dfdf" opacity="1.00" d=" M 672.95 644.01 C 684.01 640.85 695.75 642.31 707.12 641.96 C 707.89 652.50 708.02 663.09 708.60 673.66 C 691.78 674.09 674.96 673.91 658.15 674.43 C 652.69 674.44 647.18 674.63 641.86 673.26 C 649.25 661.01 660.62 651.15 672.95 644.01 Z" />
<path fill="#e0dfdf" opacity="1.00" d=" M 331.41 657.43 C 340.20 655.44 349.21 654.78 358.17 653.98 C 355.22 662.67 351.57 671.10 348.58 679.77 C 325.26 680.99 301.91 681.36 278.60 682.79 C 294.86 671.99 311.97 661.23 331.41 657.43 Z" />
<path fill="#e0dfdf" opacity="1.00" d=" M 367.22 653.89 C 379.08 654.44 391.03 654.86 402.69 657.31 C 404.40 657.77 406.32 658.09 407.63 659.41 C 412.73 665.42 416.65 672.29 420.96 678.87 C 401.57 679.26 382.19 680.35 362.80 680.00 C 364.01 671.25 365.66 662.58 367.22 653.89 Z" />
<path fill="#e0dfdf" opacity="1.00" d=" M 415.96 661.62 C 428.33 666.00 440.43 671.43 451.41 678.67 C 442.97 678.88 434.55 678.99 426.12 679.00 C 422.71 673.22 419.29 667.44 415.96 661.62 Z" />
<path fill="#e0dfdf" opacity="1.00" d=" M 93.00 666.00 C 103.70 665.99 114.41 665.99 125.11 666.00 C 124.95 668.75 124.87 671.82 124.72 674.65 C 118.14 674.83 111.58 674.96 105.01 675.07 L 105.00 679.96 C 111.04 679.96 117.08 680.00 123.12 680.03 C 122.95 682.68 122.86 685.72 122.69 688.48 C 116.81 688.36 110.93 688.25 105.05 688.37 C 105.02 690.89 105.01 693.42 104.99 695.96 C 111.66 695.98 118.33 696.01 125.00 696.04 C 124.99 698.92 125.02 702.06 124.99 705.00 C 114.33 705.00 103.66 704.99 93.00 705.00 C 92.99 691.99 92.99 678.99 93.00 666.00 Z" />
<path fill="#e0dfdf" opacity="1.00" d=" M 877.01 671.65 C 881.71 671.55 886.50 670.93 891.21 671.66 C 896.85 672.05 898.23 680.16 894.76 683.74 C 891.69 685.85 887.68 685.71 884.19 686.57 C 884.08 689.02 883.99 691.49 883.91 693.97 C 882.18 693.98 878.73 694.00 877.00 694.00 C 876.98 686.54 876.98 679.10 877.01 671.65 M 884.41 676.26 C 884.21 677.87 884.04 679.49 883.88 681.12 C 885.49 680.94 887.11 680.77 888.74 680.59 C 888.72 679.15 888.70 677.72 888.70 676.30 C 887.26 676.28 885.83 676.26 884.41 676.26 Z" />
<path fill="#e0dfdf" opacity="1.00" d=" M 900.03 671.69 C 902.32 671.58 904.62 671.56 906.93 671.63 C 907.02 679.04 907.43 686.49 907.28 693.93 C 905.46 693.95 901.81 693.99 899.98 694.01 C 899.97 686.56 899.99 679.12 900.03 671.69 Z" />
<path fill="#e0dfdf" opacity="1.00" d=" M 913.74 674.74 C 916.46 671.01 921.68 670.71 925.89 671.10 C 930.02 671.83 932.18 675.79 934.00 679.15 C 929.09 679.30 924.31 678.27 919.57 677.20 C 919.62 681.11 917.74 685.99 921.17 688.94 C 925.42 687.85 929.24 685.24 933.82 685.47 C 932.41 688.81 931.03 693.13 927.06 694.15 C 921.79 695.83 914.59 694.24 912.43 688.61 C 910.83 684.15 910.83 678.65 913.74 674.74 Z" />
<path fill="#e0dfdf" opacity="1.00" d=" M 937.40 671.51 C 939.41 671.47 941.42 671.42 943.44 671.39 C 943.68 673.96 943.94 676.55 944.23 679.16 C 946.84 676.37 949.48 673.60 952.14 670.85 C 954.60 671.05 957.56 671.63 960.15 671.97 C 957.62 674.68 955.10 677.40 952.57 680.11 C 955.09 684.71 957.83 689.19 960.39 693.79 C 957.58 693.85 954.79 693.92 952.02 694.00 C 950.38 691.04 948.79 688.05 947.07 685.15 C 945.53 687.87 944.31 690.73 943.20 693.66 C 940.89 693.79 938.60 693.93 936.33 694.09 C 936.74 686.56 937.04 679.03 937.40 671.51 Z" />
<path fill="#e0dfdf" opacity="1.00" d=" M 972.66 671.78 C 975.39 671.68 978.12 671.56 980.86 671.57 C 980.98 677.33 981.14 683.11 981.35 688.90 C 983.51 688.70 985.69 688.47 987.86 688.21 C 987.98 682.49 988.14 676.80 988.35 671.11 C 990.64 671.28 992.94 671.53 995.23 671.82 C 993.94 678.48 997.69 687.65 991.81 692.79 C 987.54 695.50 981.53 695.23 977.17 692.81 C 970.82 687.81 973.98 678.61 972.66 671.78 Z" />
<path fill="#e0dfdf" opacity="1.00" d=" M 999.31 671.24 C 1004.70 671.38 1010.40 670.64 1015.60 672.52 C 1020.10 674.64 1020.04 682.29 1015.65 684.52 C 1012.96 685.67 1010.00 685.96 1007.22 686.65 C 1007.10 689.08 1007.00 691.52 1006.91 693.97 C 1005.12 693.98 1001.54 693.98 999.76 693.98 C 999.27 686.40 999.17 678.82 999.31 671.24 M 1007.64 675.06 L 1007.42 681.95 C 1009.07 681.07 1010.74 680.19 1012.23 679.04 C 1010.85 677.54 1009.24 676.29 1007.64 675.06 Z" />
<path fill="#e0dfdf" opacity="1.00" d=" M 695.77 680.46 C 701.56 678.96 708.77 677.66 712.37 683.73 C 707.08 684.52 701.83 685.48 696.47 685.16 C 696.22 683.59 695.99 682.02 695.77 680.46 M 696.22 682.62 C 700.24 683.61 704.34 683.88 708.47 684.03 C 708.64 683.20 708.96 681.53 709.12 680.69 C 704.71 680.19 700.17 680.41 696.22 682.62 Z" />
<path fill="#e0dfdf" opacity="1.00" d=" M 961.40 683.32 C 964.38 683.21 967.54 683.21 970.58 683.20 C 970.77 684.78 970.96 686.38 971.17 687.98 C 968.59 687.98 963.42 687.98 960.84 687.98 C 961.01 686.42 961.20 684.87 961.40 683.32 Z" />
<path fill="#e0dfdf" opacity="1.00" d=" M 402.81 691.00 C 405.71 683.42 415.11 684.11 420.23 688.98 C 415.55 693.50 408.49 693.56 402.81 691.00 M 404.00 689.22 C 407.96 691.76 412.77 691.13 417.22 690.68 C 417.02 689.71 416.62 687.76 416.42 686.79 C 412.23 687.33 408.04 688.00 404.00 689.22 Z" />
<path fill="#e0dfdf" opacity="1.00" d=" M 336.42 688.37 C 340.33 688.33 344.25 688.75 348.14 689.28 C 348.13 690.35 348.13 692.50 348.12 693.57 C 342.88 696.17 336.90 695.93 331.91 692.87 C 333.30 691.27 334.58 689.50 336.42 688.37 M 333.91 692.91 C 338.64 693.71 343.77 693.77 348.05 691.30 C 343.41 689.05 337.29 688.18 333.91 692.91 Z" />
<path fill="#e0dfdf" opacity="1.00" d=" M 226.44 707.48 C 238.32 704.65 250.55 715.93 249.94 727.89 C 249.02 734.25 246.00 740.95 239.95 743.93 C 230.71 750.20 216.62 746.20 212.04 735.96 C 205.88 724.75 213.56 709.01 226.44 707.48 M 224.43 709.47 C 215.56 711.98 209.43 722.07 211.89 731.05 C 213.99 744.23 232.44 750.05 241.85 740.86 C 250.63 733.93 250.19 718.43 240.77 712.24 C 236.33 708.09 229.98 708.41 224.43 709.47 Z" />
<path fill="#e0dfdf" opacity="1.00" d=" M 434.42 708.47 C 443.73 705.56 454.16 710.07 458.00 719.00 C 464.49 730.82 454.66 747.64 440.98 746.98 C 431.30 748.02 421.62 740.18 420.54 730.55 C 418.71 721.37 424.88 710.24 434.42 708.47 M 436.42 709.46 C 427.98 710.87 420.81 719.23 422.02 727.97 C 420.95 739.98 434.99 748.97 445.83 744.83 C 456.35 742.15 460.99 729.49 457.01 719.96 C 453.60 712.45 444.63 707.32 436.42 709.46 Z" />
<path fill="#e0dfdf" opacity="1.00" d=" M 585.47 712.56 C 595.27 709.27 607.35 717.20 605.95 728.01 C 606.97 739.28 592.59 748.07 583.01 741.98 C 569.72 737.24 571.68 715.05 585.47 712.56 M 586.46 713.53 C 576.40 715.62 571.41 729.68 578.74 737.26 C 585.75 745.97 602.12 742.40 604.48 731.39 C 607.09 721.15 596.96 710.09 586.46 713.53 Z" />
<path fill="#e0dfdf" opacity="1.00" d=" M 782.44 712.47 C 788.35 711.02 795.19 711.76 799.33 716.67 C 807.47 724.21 803.97 740.22 792.89 742.94 C 785.06 746.29 776.13 741.50 772.94 734.07 C 769.02 725.82 773.94 715.20 782.44 712.47 M 784.43 713.43 C 779.14 714.21 775.47 718.94 773.52 723.59 C 770.97 731.96 777.68 742.97 787.03 742.08 C 795.02 743.39 803.03 736.19 801.97 728.00 C 803.19 718.85 793.14 710.65 784.43 713.43 Z" />
</g>
<g id="#885252ff">
<path fill="#885252" opacity="1.00" d=" M 649.65 149.62 C 676.60 144.29 704.39 143.71 731.69 146.34 C 749.73 147.98 766.09 156.29 782.31 163.70 C 796.78 170.22 812.67 172.64 828.34 174.15 C 834.79 181.09 835.47 190.66 838.27 199.23 C 840.01 203.97 843.78 208.81 841.08 214.01 C 841.21 217.88 837.81 219.90 834.62 220.51 C 821.36 223.21 808.05 225.68 794.75 228.14 C 793.27 219.69 793.59 210.08 787.95 203.03 C 779.26 189.46 757.74 188.25 747.14 200.15 C 738.86 207.53 738.36 219.31 736.70 229.52 C 684.63 230.33 632.52 229.94 580.43 229.97 C 579.92 220.27 578.17 209.97 571.63 202.35 C 560.56 188.06 535.06 190.94 526.97 206.97 C 522.56 213.90 522.63 222.43 521.65 230.31 C 514.97 229.14 507.23 230.68 501.31 226.68 C 497.55 222.88 495.51 217.88 493.07 213.22 C 496.86 206.92 499.17 199.89 502.47 193.35 C 504.14 189.74 508.57 188.92 511.98 188.00 C 536.12 181.81 561.03 179.77 585.69 176.79 C 589.85 176.18 594.28 175.93 598.12 174.00 C 614.90 165.14 630.75 153.58 649.65 149.62 M 692.03 148.89 C 690.51 157.74 689.36 166.66 688.70 175.61 C 702.43 174.99 716.18 174.83 729.91 173.95 C 730.95 167.41 731.83 160.83 732.26 154.21 C 719.13 150.67 705.60 149.20 692.03 148.89 M 644.38 156.49 C 631.52 161.88 620.26 170.26 608.69 177.88 C 630.40 177.62 652.11 176.98 673.80 175.85 C 676.76 167.15 679.88 158.50 683.04 149.87 C 669.98 150.42 656.55 151.22 644.38 156.49 M 734.27 155.62 C 733.67 161.75 733.04 167.87 732.73 174.03 C 740.29 173.88 747.87 173.66 755.44 173.54 C 749.48 166.38 741.96 160.77 734.27 155.62 M 729.01 182.60 C 728.98 183.60 728.91 185.58 728.88 186.58 C 734.18 188.03 739.70 187.44 745.07 186.62 C 745.08 185.54 745.11 183.40 745.13 182.33 C 739.84 180.72 734.32 181.61 729.01 182.60 M 659.82 187.96 C 665.76 189.92 672.22 189.91 678.17 187.96 C 673.89 181.56 664.14 181.67 659.82 187.96 Z" />
<path fill="#885252" opacity="1.00" d=" M 848.13 148.67 C 906.41 147.32 964.71 148.29 1023.00 148.00 L 1023.00 227.00 C 977.32 227.00 931.65 227.00 885.97 227.01 C 873.40 200.88 860.48 174.91 848.13 148.67 M 906.27 165.49 C 905.87 178.32 905.98 191.16 905.99 204.00 C 909.92 203.99 913.88 203.99 917.85 203.99 C 918.00 198.74 918.18 193.49 918.40 188.25 C 923.27 188.05 928.10 187.99 933.00 187.88 C 932.97 185.27 932.96 182.66 932.95 180.05 C 928.11 180.29 923.25 180.47 918.41 180.67 C 918.29 179.01 918.04 175.69 917.92 174.03 C 923.97 174.01 930.01 173.98 936.09 173.97 C 935.93 171.03 935.67 168.08 935.57 165.17 C 925.79 164.94 916.03 165.28 906.27 165.49 Z" />
<path fill="#885252" opacity="1.00" d=" M 0.00 149.00 C 58.42 149.08 116.85 148.83 175.27 149.12 C 166.09 169.35 155.70 189.01 146.15 209.06 C 143.31 215.14 140.34 221.16 137.01 226.99 C 91.34 227.03 45.67 226.99 0.00 227.00 L 0.00 149.00 M 103.86 164.90 C 98.43 177.75 93.89 190.95 88.86 203.96 C 93.22 203.98 97.58 203.95 101.94 203.94 C 102.41 201.98 102.86 200.01 103.30 198.05 C 107.75 198.04 112.19 198.07 116.65 198.10 C 117.10 200.05 117.58 202.01 118.06 203.97 C 122.44 203.96 126.81 203.95 131.20 203.91 C 126.45 190.95 121.38 178.10 116.75 165.10 C 112.45 165.01 108.15 164.94 103.86 164.90 Z" />
<path fill="#885252" opacity="1.00" d=" M 237.17 169.27 C 252.69 160.55 268.12 148.24 286.97 149.03 C 314.19 149.21 341.51 148.29 368.68 149.44 C 381.84 157.44 392.16 170.68 396.01 185.70 C 396.49 196.84 398.54 207.85 398.96 218.98 C 399.90 224.00 395.69 226.97 392.79 230.14 C 391.76 223.85 391.62 216.80 387.43 211.61 C 381.31 204.02 368.77 201.46 360.97 207.98 C 353.16 212.56 352.01 221.86 351.64 229.96 C 314.24 230.61 276.87 229.27 239.48 228.94 C 239.15 221.98 238.97 214.52 233.98 209.01 C 226.85 199.62 210.79 198.96 203.12 208.12 C 197.57 213.12 197.65 221.12 197.19 228.01 C 192.69 227.67 188.19 227.27 183.68 226.95 C 181.25 219.83 175.67 211.40 179.98 204.00 C 184.12 196.85 189.09 189.38 196.98 186.01 C 209.92 179.31 224.93 177.41 237.17 169.27 M 267.69 157.71 C 261.63 160.74 255.58 163.99 250.40 168.40 C 247.24 171.96 246.65 176.96 245.52 181.41 C 267.04 180.78 288.56 180.05 310.06 179.04 C 311.72 170.41 313.40 161.76 314.37 153.01 C 298.97 154.20 282.02 150.06 267.69 157.71 M 322.39 153.32 C 321.44 161.90 320.44 170.47 319.80 179.07 C 337.32 177.91 354.88 178.23 372.41 177.35 C 371.15 172.12 371.44 166.22 368.47 161.55 C 365.06 157.44 360.52 153.59 354.99 153.12 C 344.13 152.52 333.25 153.04 322.39 153.32 M 358.98 187.04 C 359.01 188.33 359.03 189.61 359.07 190.90 C 361.08 191.27 363.10 191.65 365.12 192.01 C 363.30 190.87 361.47 189.76 359.66 188.61 C 361.22 188.18 362.78 187.75 364.35 187.32 L 358.98 187.04 M 364.78 187.16 C 365.86 187.59 366.96 188.03 368.05 188.47 C 367.41 189.32 366.78 190.18 366.15 191.04 C 366.85 191.02 368.25 190.98 368.95 190.95 C 368.97 189.63 368.99 188.30 369.02 186.98 C 367.60 187.04 366.18 187.10 364.78 187.16 M 301.88 187.95 C 303.01 188.63 304.14 189.31 305.27 190.00 C 304.14 190.68 303.01 191.36 301.88 192.05 C 303.47 191.90 305.07 191.75 306.67 191.59 C 306.67 190.53 306.67 189.47 306.67 188.41 C 305.07 188.24 303.47 188.09 301.88 187.95 M 296.40 189.77 C 295.47 191.23 297.93 192.91 299.08 191.75 C 299.83 190.38 297.51 188.76 296.40 189.77 Z" />
<path fill="#885252" opacity="1.00" d=" M 109.65 177.62 C 111.21 181.26 112.47 185.02 113.53 188.84 C 111.82 188.86 108.39 188.91 106.68 188.93 C 107.56 185.13 108.59 181.37 109.65 177.62 Z" />
<path fill="#885252" opacity="1.00" d=" M 730.22 184.60 C 734.80 181.92 740.37 181.54 744.76 184.81 C 739.91 185.08 735.04 185.07 730.22 184.60 Z" />
<path fill="#885252" opacity="1.00" d=" M 662.05 186.66 C 666.13 185.84 670.28 185.30 674.44 184.91 C 674.61 185.78 674.94 187.51 675.11 188.37 C 670.69 188.36 666.09 188.77 662.05 186.66 Z" />
<path fill="#885252" opacity="1.00" d=" M 762.44 194.47 C 775.61 191.88 789.22 203.73 788.98 217.03 C 790.49 228.98 779.88 240.05 768.40 241.47 C 755.45 243.43 741.71 232.28 742.01 218.97 C 740.64 207.09 750.92 195.86 762.44 194.47 M 760.42 199.46 C 751.18 201.68 744.57 211.95 746.56 221.35 C 748.22 231.60 759.26 239.47 769.58 236.56 C 781.07 234.69 788.23 220.34 782.89 210.02 C 779.40 201.52 769.26 196.90 760.42 199.46 Z" />
<path fill="#885252" opacity="1.00" d=" M 546.44 195.43 C 560.11 192.37 574.50 204.02 573.94 218.04 C 575.39 228.29 567.51 238.02 558.13 241.18 C 551.09 242.69 542.78 243.10 537.02 237.96 C 525.27 230.50 523.55 212.07 533.33 202.32 C 537.05 199.07 541.34 195.88 546.44 195.43 M 544.43 200.50 C 534.26 203.53 528.40 216.34 532.91 226.04 C 536.08 235.06 546.98 240.12 555.98 236.93 C 568.77 234.17 573.97 216.28 565.33 206.68 C 560.49 200.21 551.98 198.55 544.43 200.50 Z" />
<path fill="#885252" opacity="1.00" d=" M 763.40 200.53 C 770.44 199.63 778.26 203.20 781.08 209.95 C 785.92 218.56 781.57 230.89 772.12 234.14 C 765.45 237.85 757.43 234.36 752.15 229.86 C 747.99 224.05 746.16 215.51 750.20 209.18 C 752.78 204.30 757.92 201.00 763.40 200.53 Z" />
<path fill="#885252" opacity="1.00" d=" M 547.45 201.51 C 557.60 199.14 569.12 208.33 567.92 219.00 C 568.55 228.52 559.34 236.95 550.03 236.04 C 538.33 236.89 529.74 223.42 533.95 212.96 C 536.09 207.20 541.23 202.32 547.45 201.51 Z" />
<path fill="#885252" opacity="1.00" d=" M 217.66 207.18 C 229.85 207.01 238.51 220.91 233.70 231.75 C 230.57 241.18 218.59 245.17 210.01 240.96 C 200.37 237.11 196.64 223.19 203.05 215.03 C 205.80 209.54 212.07 207.86 217.66 207.18 M 215.86 211.48 C 220.02 213.32 224.10 215.38 228.40 216.89 C 224.85 213.90 220.58 211.81 215.86 211.48 M 204.55 222.14 C 206.48 219.67 208.22 217.07 209.74 214.33 C 207.37 216.45 205.65 219.16 204.55 222.14 M 228.38 218.67 C 227.18 219.51 228.39 221.91 229.77 221.18 C 231.00 220.32 229.79 217.89 228.38 218.67 M 204.09 222.71 C 204.44 225.27 204.94 227.81 205.67 230.29 C 205.28 227.73 204.73 225.21 204.09 222.71 M 230.17 223.80 C 228.90 224.25 229.41 226.65 230.83 226.20 C 232.09 225.74 231.59 223.34 230.17 223.80 M 229.20 228.67 C 227.77 228.75 227.31 231.41 228.96 231.49 C 230.44 231.45 230.84 228.73 229.20 228.67 M 206.15 231.40 C 205.30 235.38 210.14 230.58 206.15 231.40 M 221.90 237.18 C 223.85 236.03 225.72 234.74 227.45 233.27 C 225.54 234.49 223.69 235.79 221.90 237.18 M 210.54 235.27 C 209.62 236.41 211.58 237.87 212.46 236.73 C 213.38 235.59 211.41 234.13 210.54 235.27 M 215.12 237.31 C 215.52 238.94 219.48 238.94 219.88 237.31 C 218.64 236.25 216.36 236.25 215.12 237.31 Z" />
<path fill="#885252" opacity="1.00" d=" M 370.34 207.35 C 383.97 204.97 395.85 222.87 386.96 233.97 C 382.02 244.95 364.70 245.51 358.21 235.78 C 356.06 232.15 353.64 227.97 354.42 223.57 C 354.89 215.12 362.31 208.61 370.34 207.35 M 361.52 216.66 C 366.41 215.02 371.23 213.18 376.16 211.63 C 370.92 212.13 365.51 212.94 361.52 216.66 M 377.15 213.40 C 376.30 217.38 381.14 212.58 377.15 213.40 M 381.69 216.49 C 380.61 217.58 382.14 220.03 383.58 219.24 C 384.69 218.14 383.14 215.65 381.69 216.49 M 361.02 233.44 C 360.67 228.10 360.77 222.75 360.88 217.41 C 358.28 222.50 359.31 228.23 361.02 233.44 M 384.12 221.53 C 381.82 224.97 388.05 222.31 384.12 221.53 M 384.17 225.80 C 382.90 226.25 383.41 228.65 384.83 228.20 C 386.09 227.74 385.58 225.34 384.17 225.80 M 366.54 236.97 C 369.49 237.40 372.33 237.41 375.35 237.61 C 372.41 237.35 369.47 237.14 366.54 236.97 Z" />
<path fill="#885252" opacity="1.00" d=" M 669.02 261.31 C 691.49 260.87 713.96 259.16 736.45 260.35 C 757.20 261.83 778.11 259.80 798.80 262.51 C 803.47 262.91 806.54 267.10 807.71 271.28 C 812.17 286.59 812.25 302.69 813.55 318.47 C 814.58 328.50 813.60 338.71 815.83 348.62 C 805.24 350.26 794.50 350.80 783.80 351.10 C 781.97 343.20 779.45 334.43 772.00 330.01 C 761.11 321.56 742.83 327.24 738.15 340.06 C 736.30 344.11 735.54 348.53 734.53 352.84 C 686.91 353.72 639.32 354.94 591.71 356.02 C 590.44 347.96 589.52 338.71 582.97 333.01 C 573.41 322.12 553.34 325.12 546.97 337.96 C 543.16 343.69 542.58 350.73 542.30 357.42 C 538.87 356.17 535.52 354.71 532.18 353.29 C 531.24 347.87 527.02 343.56 526.36 338.14 C 527.89 329.84 530.05 320.51 536.61 314.61 C 549.84 304.83 566.01 300.43 580.04 292.06 C 594.99 283.37 609.88 274.39 625.96 267.91 C 639.46 261.99 654.57 262.04 669.02 261.31 M 662.92 267.09 C 662.96 278.10 663.20 289.12 663.91 300.11 C 683.81 299.10 703.69 297.85 723.59 296.90 C 722.77 286.59 721.91 276.30 721.84 265.96 C 702.18 265.85 682.56 267.16 662.92 267.09 M 731.82 265.98 C 732.98 276.35 734.74 286.63 736.17 296.96 C 758.04 295.36 779.99 296.51 801.89 295.45 C 798.97 287.64 796.23 279.52 791.21 272.79 C 786.16 269.26 779.89 267.94 773.88 267.21 C 759.89 265.92 745.84 265.94 731.82 265.98 M 621.33 273.45 C 613.07 276.43 605.89 281.67 599.01 286.99 C 591.49 292.92 583.60 298.53 577.33 305.83 C 601.87 305.53 626.23 302.20 650.69 300.49 C 651.85 289.27 652.69 278.02 653.12 266.76 C 642.39 268.15 631.41 269.25 621.33 273.45 M 660.08 308.62 C 666.28 311.61 673.43 310.65 679.97 309.40 C 674.11 305.23 666.61 307.47 660.08 308.62 M 638.08 309.54 C 644.04 313.48 651.37 311.61 657.95 310.55 C 652.07 306.47 644.63 308.47 638.08 309.54 Z" />
<path fill="#885252" opacity="1.00" d=" M 0.00 274.00 C 58.42 274.08 116.83 273.84 175.25 274.12 C 163.18 300.24 149.81 325.74 137.78 351.89 C 91.85 352.33 45.93 351.35 0.00 352.02 L 0.00 274.00 M 115.74 289.82 C 108.20 290.75 100.60 289.99 93.05 289.98 C 92.87 303.14 91.93 316.37 93.42 329.50 C 102.49 329.17 111.57 329.27 120.61 328.47 C 125.67 328.08 128.79 322.70 128.87 317.99 C 128.73 314.25 126.07 311.35 123.78 308.64 C 125.71 305.25 128.04 301.59 126.56 297.43 C 125.64 292.70 120.48 289.08 115.74 289.82 M 87.40 322.15 C 86.97 323.54 87.45 324.03 88.85 323.60 C 89.29 322.19 88.80 321.71 87.40 322.15 M 53.15 346.40 C 52.30 350.38 57.14 345.58 53.15 346.40 Z" />
<path fill="#885252" opacity="1.00" d=" M 303.66 277.61 C 337.72 273.63 372.46 271.67 406.48 277.08 C 409.17 286.50 418.67 291.25 423.84 299.11 C 429.25 305.04 427.62 313.36 428.49 320.67 C 430.14 322.31 431.94 323.84 433.31 325.75 C 435.03 333.53 433.91 342.94 427.70 348.53 C 424.77 349.65 421.59 349.83 418.54 350.40 C 417.39 343.94 415.91 337.29 412.23 331.75 C 408.21 327.70 402.90 324.55 396.97 325.01 C 389.29 324.54 379.52 325.85 375.07 333.04 C 370.02 338.80 369.80 346.74 368.60 353.90 C 329.90 354.16 291.22 355.71 252.53 356.01 C 252.07 347.49 250.10 338.42 243.80 332.20 C 234.50 324.24 219.40 323.84 210.18 332.18 C 203.92 339.05 204.17 348.68 203.67 357.34 C 195.64 355.91 187.56 354.55 179.77 352.09 C 180.11 344.08 178.77 335.43 183.06 328.21 C 185.89 319.84 194.62 316.00 202.32 313.37 C 217.43 308.10 233.63 307.35 248.85 302.58 C 266.61 293.39 283.15 280.13 303.66 277.61 M 332.99 280.15 C 331.95 288.68 331.42 297.26 330.80 305.84 C 349.50 304.69 368.19 302.72 386.95 303.05 C 388.17 295.40 386.96 285.60 380.06 280.96 C 364.65 277.18 348.64 280.14 332.99 280.15 M 277.75 291.75 C 270.07 296.64 261.84 301.91 257.80 310.43 C 278.50 309.26 299.20 307.82 319.85 306.00 C 322.12 297.31 324.49 288.64 326.30 279.84 C 309.65 281.03 292.55 283.56 277.75 291.75 M 367.37 310.31 C 367.20 312.02 367.04 313.73 366.90 315.45 C 370.70 315.54 374.50 315.25 378.23 314.54 C 378.00 313.07 377.77 311.61 377.54 310.15 C 374.15 310.16 370.73 310.22 367.37 310.31 M 309.02 314.71 C 309.01 316.27 309.00 317.84 309.00 319.40 C 312.66 319.49 316.32 319.38 319.98 319.29 C 319.98 317.72 319.99 316.16 320.00 314.60 C 316.33 314.51 312.67 314.61 309.02 314.71 Z" />
<path fill="#885252" opacity="1.00" d=" M 848.04 274.00 C 906.36 273.99 964.68 274.01 1023.00 274.00 L 1023.00 352.00 C 977.32 351.99 931.65 352.02 885.98 351.99 C 873.62 325.86 860.49 300.10 848.04 274.00 M 906.24 290.44 C 905.88 303.28 905.99 316.14 905.99 329.00 C 908.47 329.00 913.44 329.00 915.93 329.00 C 915.99 320.21 916.09 311.43 916.38 302.66 C 918.64 311.42 920.80 320.21 923.02 328.99 C 926.13 329.04 928.96 328.98 932.18 329.04 C 934.48 320.62 936.56 312.14 938.76 303.69 C 938.92 312.12 938.99 320.56 939.07 329.00 C 941.55 329.00 946.49 329.00 948.96 329.00 C 948.94 316.31 948.92 303.62 949.62 290.96 C 944.14 291.00 938.68 291.04 933.24 291.10 C 931.40 298.21 929.51 305.30 927.57 312.39 C 925.46 305.36 923.77 298.19 921.94 291.10 C 916.69 290.90 911.45 290.67 906.24 290.44 Z" />
<path fill="#885252" opacity="1.00" d=" M 106.46 298.07 C 110.73 297.75 113.63 300.24 115.11 303.81 C 112.35 304.71 109.57 305.52 106.77 306.28 C 106.85 303.54 106.66 300.80 106.46 298.07 Z" />
<path fill="#885252" opacity="1.00" d=" M 669.00 308.22 C 669.56 307.15 671.42 307.15 672.00 308.22 C 672.34 310.02 668.65 310.02 669.00 308.22 Z" />
<path fill="#885252" opacity="1.00" d=" M 643.61 310.51 C 646.85 310.00 650.14 309.90 653.41 310.15 C 650.06 310.29 646.92 310.52 643.61 310.51 Z" />
<path fill="#885252" opacity="1.00" d=" M 367.25 313.23 C 370.23 312.15 373.34 311.54 376.45 310.88 C 376.50 311.61 376.60 313.09 376.64 313.83 C 373.48 313.64 370.38 313.53 367.25 313.23 Z" />
<path fill="#885252" opacity="1.00" d=" M 106.65 312.64 C 109.78 313.25 112.92 313.97 116.02 314.71 C 116.04 316.33 116.05 317.95 116.07 319.58 C 112.33 320.14 108.54 320.21 104.77 320.24 C 105.35 317.69 105.93 315.15 106.65 312.64 Z" />
<path fill="#885252" opacity="1.00" d=" M 311.64 315.52 C 314.59 314.49 317.41 316.28 319.97 317.53 C 316.73 318.26 313.32 318.91 310.05 317.93 C 309.63 316.43 310.16 315.63 311.64 315.52 Z" />
<path fill="#885252" opacity="1.00" d=" M 227.31 329.25 C 238.51 328.66 248.68 338.73 247.94 350.01 C 248.60 362.33 235.40 372.35 223.62 369.48 C 212.13 367.37 203.90 353.68 208.71 342.70 C 211.37 334.94 219.37 329.96 227.31 329.25 M 225.43 334.44 C 217.39 335.49 211.01 343.45 212.58 351.58 C 213.02 358.79 219.84 364.89 226.96 364.96 C 235.25 365.90 243.72 358.49 243.00 350.04 C 243.64 341.12 234.38 331.98 225.43 334.44 Z" />
<path fill="#885252" opacity="1.00" d=" M 389.43 329.39 C 399.79 327.25 410.99 334.90 412.50 345.43 C 416.38 359.58 400.03 374.40 386.40 368.56 C 377.63 365.74 371.21 356.65 372.42 347.35 C 373.49 338.66 380.43 330.31 389.43 329.39 M 389.43 334.45 C 380.85 335.72 374.70 345.82 377.96 353.99 C 379.00 360.07 385.04 363.08 390.33 364.68 C 400.47 366.56 410.15 356.37 407.57 346.44 C 406.95 338.11 397.36 331.98 389.43 334.45 Z" />
<path fill="#885252" opacity="1.00" d=" M 564.44 331.45 C 573.35 329.86 583.03 335.40 586.07 343.94 C 588.73 351.63 586.59 360.88 580.03 366.02 C 571.59 372.98 557.34 370.94 551.49 361.48 C 543.34 350.78 551.21 332.93 564.44 331.45 M 568.23 334.54 C 560.21 334.11 553.42 340.48 551.83 347.99 C 549.75 356.26 556.49 365.10 564.61 366.53 C 573.41 368.49 582.84 361.51 583.47 352.58 C 584.83 343.62 577.24 334.76 568.23 334.54 Z" />
<path fill="#885252" opacity="1.00" d=" M 756.44 331.52 C 768.28 329.39 780.16 340.69 778.68 352.65 C 777.59 358.92 774.05 365.38 768.07 368.11 C 757.91 373.47 743.24 368.20 740.36 356.62 C 736.31 345.64 744.89 332.44 756.44 331.52 M 754.44 335.48 C 745.33 337.95 739.67 349.71 744.82 358.13 C 748.97 366.90 761.19 369.25 768.79 363.75 C 773.10 359.62 776.57 353.60 774.55 347.43 C 773.13 338.65 762.96 332.62 754.44 335.48 Z" />
<path fill="#885252" opacity="1.00" d=" M 390.41 335.53 C 397.77 334.08 406.16 339.74 406.51 347.41 C 408.44 357.56 396.31 367.46 387.01 362.01 C 379.74 359.57 376.25 350.37 379.71 343.68 C 382.01 339.78 385.60 335.89 390.41 335.53 Z" />
<path fill="#885252" opacity="1.00" d=" M 223.44 336.49 C 233.32 332.43 244.13 342.82 241.67 352.67 C 240.00 362.11 226.51 367.56 219.28 360.69 C 210.62 354.67 212.69 338.70 223.44 336.49 Z" />
<path fill="#885252" opacity="1.00" d=" M 565.37 336.43 C 574.06 335.19 583.68 342.60 582.15 352.02 C 582.05 361.44 570.37 368.17 561.98 364.00 C 557.54 362.29 554.25 358.23 553.60 353.54 C 551.62 345.75 557.69 337.68 565.37 336.43 Z" />
<path fill="#885252" opacity="1.00" d=" M 756.43 336.49 C 767.32 333.69 778.13 347.31 772.03 357.02 C 768.90 365.64 756.71 367.70 750.06 361.93 C 740.26 355.61 744.84 337.57 756.43 336.49 Z" />
<path fill="#885252" opacity="1.00" d=" M 660.84 387.86 C 699.06 383.54 737.59 383.51 776.00 384.15 C 779.86 384.78 784.96 383.87 788.02 386.97 C 795.26 394.73 799.95 404.40 805.89 413.13 C 805.67 411.12 805.43 409.11 805.22 407.11 C 809.99 408.02 817.89 410.10 816.00 416.95 C 815.69 427.65 817.96 439.09 814.05 449.37 C 813.46 448.14 812.89 446.93 812.33 445.71 C 811.82 451.37 814.70 459.14 809.67 463.62 C 800.13 466.13 790.09 466.21 780.30 467.10 C 778.75 457.27 777.44 444.52 766.95 440.04 C 754.90 437.52 740.49 437.93 731.18 447.18 C 725.20 454.28 724.74 463.85 723.47 472.60 C 686.14 474.33 648.77 474.11 611.42 473.97 C 610.04 463.33 610.17 450.43 601.06 442.94 C 591.65 439.40 580.59 440.16 571.07 443.09 C 561.23 447.86 555.81 458.94 556.15 469.65 C 550.33 468.71 544.48 467.57 539.06 465.18 C 539.66 458.50 535.83 450.56 540.85 444.85 C 544.62 439.96 545.84 432.65 552.00 430.09 C 572.50 423.42 594.22 421.56 614.96 415.85 C 623.38 410.90 630.36 403.82 638.56 398.50 C 645.39 393.97 652.41 388.70 660.84 387.86 M 690.23 389.14 C 689.74 398.80 689.07 408.46 688.26 418.10 C 705.48 417.41 722.70 416.87 739.90 415.98 C 737.79 406.65 735.72 397.32 733.81 387.97 C 719.27 388.15 704.76 389.06 690.23 389.14 M 739.73 388.06 C 741.46 397.07 743.44 406.04 745.17 415.06 C 755.67 414.17 768.27 417.65 776.95 409.93 C 782.82 407.47 780.67 400.79 778.52 396.60 C 776.56 393.48 775.56 388.17 771.03 388.08 C 760.60 387.57 750.16 387.98 739.73 388.06 M 650.07 395.09 C 638.16 402.03 626.85 410.83 619.55 422.73 C 639.64 421.62 659.68 419.83 679.77 418.80 C 681.74 408.84 683.61 398.86 685.19 388.83 C 673.45 389.60 660.47 388.45 650.07 395.09 M 806.59 435.38 C 806.71 428.12 806.65 420.86 806.41 413.62 C 806.26 420.87 806.32 428.12 806.59 435.38 M 723.89 423.54 C 724.04 425.39 724.21 427.26 724.40 429.13 C 729.22 430.31 734.24 429.07 737.22 425.04 C 732.94 423.47 728.37 423.49 723.89 423.54 M 663.02 426.50 C 663.01 428.18 663.00 429.87 663.00 431.56 C 667.68 431.64 673.17 432.40 676.25 428.06 C 672.01 426.50 667.47 426.48 663.02 426.50 M 805.23 436.82 C 803.99 437.68 805.20 440.10 806.62 439.33 C 807.80 438.48 806.60 436.08 805.23 436.82 M 808.15 440.40 C 807.29 444.38 812.14 439.58 808.15 440.40 Z" />
<path fill="#885252" opacity="1.00" d=" M 0.00 399.00 C 58.61 398.99 117.23 399.03 175.84 398.97 C 162.72 425.17 150.14 451.63 137.01 477.82 C 91.37 476.01 45.66 477.46 0.00 477.00 L 0.00 399.00 M 94.83 421.77 C 88.95 431.37 90.16 445.39 99.40 452.52 C 105.02 456.12 112.14 455.29 118.38 454.39 C 124.33 452.80 127.69 447.51 129.60 442.11 C 126.30 440.80 122.99 439.52 119.68 438.26 C 117.26 440.88 115.63 444.93 111.89 445.94 C 107.93 446.43 104.22 442.86 103.97 438.99 C 103.84 434.26 102.81 426.38 108.87 424.74 C 113.07 423.13 115.91 427.54 119.23 429.20 C 122.69 429.11 126.10 428.30 129.53 427.80 C 126.94 422.84 124.16 417.16 118.16 415.75 C 110.08 413.84 100.47 415.04 94.83 421.77 Z" />
<path fill="#885252" opacity="1.00" d=" M 292.69 403.79 C 314.81 398.60 337.95 397.47 360.47 400.49 C 378.33 402.34 394.37 410.85 410.06 418.90 C 416.09 422.23 423.23 421.85 429.73 423.60 C 436.66 429.25 434.36 438.80 435.90 446.48 C 437.87 450.71 442.13 453.91 441.98 459.03 C 442.61 464.35 439.32 469.24 435.03 471.97 C 427.52 474.45 419.56 475.13 411.75 476.11 C 410.54 467.46 406.53 457.19 397.42 454.45 C 389.17 452.03 379.11 452.21 372.69 458.69 C 366.45 463.89 365.49 472.43 364.59 479.95 C 325.91 480.03 287.22 480.05 248.54 479.94 C 247.49 471.79 245.22 462.91 238.25 457.76 C 229.17 451.47 215.46 451.33 207.43 459.45 C 202.03 465.34 201.71 473.67 201.41 481.21 C 195.04 480.39 188.23 481.29 182.16 478.83 C 177.58 475.52 178.81 469.25 178.64 464.40 C 178.97 455.66 181.85 445.54 190.42 441.51 C 204.97 435.05 220.64 431.29 236.46 429.74 C 240.73 428.82 245.59 429.73 249.50 427.46 C 263.04 418.24 276.62 408.05 292.69 403.79 M 287.38 412.42 C 276.52 417.63 266.60 424.66 257.50 432.52 C 277.52 431.63 297.51 430.04 317.53 429.33 C 319.26 421.19 320.87 413.04 322.15 404.83 C 310.36 406.06 298.30 407.50 287.38 412.42 M 330.02 404.92 C 329.21 412.95 328.42 420.98 327.84 429.04 C 346.75 427.90 365.67 427.06 384.61 426.60 C 385.19 423.75 385.67 420.83 386.24 418.00 C 377.42 413.24 368.44 408.26 358.43 406.55 C 349.09 404.63 339.49 405.00 330.02 404.92 M 362.86 433.38 C 362.87 434.44 362.89 436.55 362.90 437.61 C 366.73 438.61 370.67 439.30 374.66 438.71 C 377.19 437.78 377.98 434.92 379.26 432.83 C 373.79 431.76 368.10 431.12 362.86 433.38 M 299.75 437.60 C 300.21 439.18 300.69 440.76 301.15 442.35 C 306.74 442.80 312.95 443.23 317.25 438.94 C 312.27 434.62 305.39 434.51 299.75 437.60 Z" />
<path fill="#885252" opacity="1.00" d=" M 848.03 399.01 C 906.35 398.98 964.68 399.01 1023.00 399.00 L 1023.00 478.00 C 977.44 477.91 931.88 478.19 886.32 477.86 C 873.45 451.62 860.52 425.42 848.03 399.01 M 922.13 419.00 C 922.01 429.05 922.11 439.19 920.57 449.16 C 919.73 449.07 918.05 448.89 917.21 448.80 C 916.05 446.94 915.02 444.98 913.63 443.30 C 909.86 443.18 906.17 443.69 902.46 444.02 C 903.08 445.90 903.69 447.80 904.48 449.63 C 908.85 462.26 931.80 460.29 933.77 446.89 C 934.59 437.62 933.91 428.28 934.02 419.00 C 930.04 418.99 926.07 418.99 922.13 419.00 Z" />
<path fill="#885252" opacity="1.00" d=" M 724.04 425.64 C 727.37 425.18 730.71 424.84 734.08 424.54 C 733.90 425.48 733.56 427.35 733.38 428.29 C 730.17 427.59 727.03 426.98 724.04 425.64 Z" />
<path fill="#885252" opacity="1.00" d=" M 663.59 429.75 C 665.17 426.15 670.01 427.81 673.11 427.56 C 672.94 428.45 672.60 430.24 672.43 431.13 C 669.42 430.71 666.50 430.52 663.59 429.75 Z" />
<path fill="#885252" opacity="1.00" d=" M 362.98 435.11 C 367.93 433.25 373.59 432.11 377.95 435.85 C 373.05 437.41 367.31 438.70 362.98 435.11 Z" />
<path fill="#885252" opacity="1.00" d=" M 300.95 438.30 C 305.64 437.69 310.43 437.10 315.10 438.20 C 312.98 439.81 310.79 441.79 308.00 441.97 C 305.26 441.76 303.06 439.86 300.95 438.30 Z" />
<path fill="#885252" opacity="1.00" d=" M 580.45 449.44 C 589.75 447.93 600.33 453.06 604.03 461.98 C 610.15 472.89 604.56 488.32 592.96 492.94 C 579.15 499.90 559.60 487.80 561.21 472.00 C 560.06 460.85 569.83 450.94 580.45 449.44 M 580.43 456.47 C 568.45 458.08 563.56 475.53 572.71 483.29 C 579.24 490.89 592.46 488.50 597.32 480.28 C 600.49 475.08 599.89 468.26 596.91 463.13 C 593.41 457.94 586.63 455.02 580.43 456.47 Z" />
<path fill="#885252" opacity="1.00" d=" M 748.43 449.43 C 758.29 447.62 769.38 453.52 772.92 463.03 C 778.25 473.91 772.34 488.70 760.97 492.92 C 749.26 498.68 733.61 491.37 730.21 478.81 C 725.62 466.14 735.12 451.06 748.43 449.43 M 749.42 456.49 C 737.74 457.59 732.37 472.86 739.43 481.61 C 746.26 491.52 764.07 488.97 767.06 476.95 C 771.34 466.08 760.64 453.99 749.42 456.49 Z" />
<path fill="#885252" opacity="1.00" d=" M 221.43 457.48 C 229.80 455.20 238.18 460.68 242.34 467.66 C 247.29 477.83 241.99 491.70 230.83 494.83 C 220.91 498.35 208.74 491.81 206.32 481.61 C 202.52 471.08 210.78 459.21 221.43 457.48 M 224.78 462.18 C 215.21 462.04 208.08 472.35 211.65 481.33 C 214.82 492.32 232.53 493.53 237.04 483.02 C 243.03 474.12 234.78 462.11 224.78 462.18 Z" />
<path fill="#885252" opacity="1.00" d=" M 384.42 457.45 C 395.31 454.87 407.97 464.52 406.98 476.04 C 407.89 485.47 399.90 494.60 390.57 495.52 C 379.43 497.57 367.91 487.37 369.00 476.04 C 368.21 466.94 376.03 459.26 384.42 457.45 M 388.67 462.31 C 384.55 462.85 379.68 463.45 377.22 467.22 C 371.44 473.65 373.46 485.98 381.97 489.01 C 390.14 492.93 401.70 487.65 402.10 478.03 C 403.47 469.94 396.41 462.77 388.67 462.31 Z" />
<path fill="#885252" opacity="1.00" d=" M 751.20 457.51 C 757.78 457.36 765.71 461.64 765.98 468.95 C 768.77 478.71 758.94 488.96 749.01 486.10 C 739.89 484.72 735.28 473.93 738.98 465.96 C 740.70 460.80 746.15 458.17 751.20 457.51 Z" />
<path fill="#885252" opacity="1.00" d=" M 578.40 458.37 C 588.06 454.55 599.14 462.86 597.98 473.04 C 597.85 482.70 586.42 489.30 577.63 485.38 C 573.74 482.98 569.93 479.37 569.49 474.57 C 567.87 467.95 572.33 460.81 578.40 458.37 Z" />
<path fill="#885252" opacity="1.00" d=" M 221.40 464.38 C 227.37 462.46 234.15 465.86 236.53 471.48 C 237.13 475.33 237.49 479.82 235.35 483.31 C 231.74 489.88 221.54 490.85 216.24 485.77 C 209.20 479.91 212.08 466.07 221.40 464.38 Z" />
<path fill="#885252" opacity="1.00" d=" M 384.41 464.37 C 392.83 461.50 402.62 469.61 400.55 478.39 C 399.28 486.97 388.28 492.46 381.02 486.98 C 372.15 481.86 374.00 466.39 384.41 464.37 Z" />
<path fill="#885252" opacity="1.00" d=" M 0.00 524.00 C 58.63 523.99 117.27 524.02 175.90 523.98 C 163.92 550.63 149.62 576.18 137.80 602.91 C 91.86 603.12 45.93 602.94 0.00 603.00 L 0.00 524.00 M 93.00 540.88 C 92.99 553.60 92.99 566.32 93.00 579.05 C 101.67 578.84 110.56 579.89 119.04 577.96 C 131.35 572.62 130.96 554.60 123.82 545.19 C 114.97 538.34 103.23 541.66 93.00 540.88 Z" />
<path fill="#885252" opacity="1.00" d=" M 312.69 530.70 C 322.78 525.93 334.23 525.48 345.15 524.41 C 364.99 523.53 385.00 524.22 404.59 527.64 C 416.94 531.36 428.50 537.25 439.95 543.09 C 451.35 549.91 465.09 550.02 477.92 551.25 C 479.72 564.39 486.69 577.00 484.52 590.51 C 481.58 595.00 478.12 600.45 472.37 601.38 C 464.18 603.01 455.88 604.09 447.59 605.11 C 446.38 597.18 446.30 587.83 440.34 581.68 C 429.55 568.97 405.65 572.77 399.15 588.07 C 395.91 594.13 396.01 601.20 394.81 607.82 C 348.02 609.71 301.19 608.86 254.37 608.96 C 252.68 597.60 251.47 584.05 240.87 577.12 C 229.28 571.08 211.75 572.55 205.05 585.05 C 200.71 591.89 201.67 600.56 200.67 608.26 C 193.49 607.89 186.21 608.23 179.17 606.59 C 180.86 594.73 177.45 582.18 181.86 570.80 C 190.61 564.39 201.75 562.80 211.93 559.86 C 228.81 555.37 246.37 554.67 263.71 553.69 C 271.20 553.57 277.76 549.67 284.03 546.03 C 293.38 540.55 302.84 535.24 312.69 530.70 M 281.70 555.70 C 302.98 553.97 324.33 553.60 345.61 551.82 C 347.50 544.06 350.04 536.48 352.30 528.84 C 326.53 529.12 301.58 539.65 281.70 555.70 M 359.97 528.77 C 359.03 536.50 358.10 544.24 357.75 552.03 C 370.12 550.66 382.58 551.02 395.01 550.94 C 394.99 544.95 394.97 538.95 394.96 532.97 C 383.59 529.74 371.79 528.47 359.97 528.77 M 397.00 533.49 C 396.29 539.39 396.04 545.30 395.74 551.24 C 404.01 550.93 412.32 550.72 420.57 549.81 C 415.64 540.96 406.04 536.78 397.00 533.49 M 392.95 558.30 C 398.13 562.38 404.93 560.43 410.99 560.35 C 410.99 558.75 410.98 557.15 410.98 555.57 C 404.86 555.53 398.33 554.81 392.95 558.30 M 328.03 557.68 C 327.99 558.66 327.90 560.61 327.86 561.59 C 334.03 563.22 342.45 564.51 346.31 558.15 C 340.55 555.20 334.08 556.48 328.03 557.68 Z" />
<path fill="#885252" opacity="1.00" d=" M 847.72 524.08 C 906.14 523.88 964.57 524.06 1023.00 524.00 L 1023.00 603.00 C 977.35 602.98 931.70 603.05 886.05 602.97 C 873.59 576.53 860.53 550.36 847.72 524.08 M 910.22 547.22 C 906.26 551.23 907.32 558.83 912.33 561.56 C 918.24 565.31 925.49 565.63 932.05 567.74 C 932.01 569.17 931.97 570.61 931.96 572.06 C 929.54 572.24 926.90 572.30 924.56 572.53 C 922.68 571.15 920.91 569.54 918.75 568.63 C 914.54 567.98 910.17 569.15 906.00 569.02 C 907.48 574.00 911.18 578.20 916.30 579.66 C 924.38 581.60 933.71 581.60 940.86 576.88 C 946.64 573.13 946.72 562.88 940.65 559.36 C 935.15 556.80 928.89 556.60 923.23 554.58 C 921.44 553.95 921.27 551.67 920.43 550.24 C 928.41 551.69 936.45 553.30 944.58 551.91 C 941.49 548.48 939.68 542.76 934.07 542.88 C 926.27 541.72 916.20 540.79 910.22 547.22 Z" />
<path fill="#885252" opacity="1.00" d=" M 639.07 556.12 C 653.07 547.79 668.06 541.32 682.95 534.77 C 685.28 536.98 687.46 539.33 689.50 541.82 C 684.70 545.79 679.52 549.26 674.20 552.49 C 674.97 554.97 675.71 557.46 676.41 559.98 C 690.81 560.21 705.18 559.34 719.56 558.83 C 720.10 553.55 720.52 548.26 721.90 543.12 C 727.60 545.60 730.78 550.96 730.68 557.26 C 739.88 556.65 749.43 555.73 757.37 550.61 C 774.34 545.14 792.23 550.54 808.68 555.37 C 818.62 558.82 829.73 561.86 836.21 570.81 C 841.88 575.91 839.41 584.36 839.67 591.10 C 839.76 596.00 836.13 600.44 832.16 602.94 C 823.02 605.34 813.55 605.96 804.27 607.61 C 804.35 599.28 805.01 590.20 799.94 583.04 C 792.92 570.50 775.03 566.08 763.04 574.06 C 750.79 580.64 746.87 596.31 750.51 609.06 C 711.55 608.78 672.58 609.35 633.63 608.75 C 633.75 601.13 634.59 593.06 630.91 586.05 C 625.62 574.98 612.21 567.14 600.04 571.10 C 590.07 573.46 582.27 581.87 579.67 591.65 C 578.92 597.78 579.27 603.99 579.55 610.16 C 568.39 610.07 557.17 609.10 546.33 606.35 C 547.26 599.65 545.32 592.97 545.46 586.29 C 546.50 581.86 551.73 580.49 555.09 578.24 C 565.31 573.67 574.78 567.27 585.83 564.78 C 600.06 561.80 614.52 559.98 629.02 558.92 C 632.58 559.07 636.11 558.08 639.07 556.12 M 710.87 572.72 C 716.93 575.48 724.83 576.21 730.00 571.31 C 724.22 567.24 715.52 566.68 710.87 572.72 Z" />
<path fill="#885252" opacity="1.00" d=" M 105.08 549.22 C 108.03 550.39 113.15 549.50 114.99 552.97 C 117.31 557.82 117.40 563.96 114.63 568.65 C 112.20 571.13 108.24 570.67 105.07 571.57 C 105.03 564.11 105.03 556.66 105.08 549.22 Z" />
<path fill="#885252" opacity="1.00" d=" M 395.20 558.57 C 400.27 556.89 406.24 555.34 411.03 558.57 C 405.79 559.45 400.40 559.72 395.20 558.57 Z" />
<path fill="#885252" opacity="1.00" d=" M 328.21 559.56 C 333.53 557.63 339.95 556.07 344.89 559.75 C 339.44 561.18 333.45 562.16 328.21 559.56 Z" />
<path fill="#885252" opacity="1.00" d=" M 714.48 570.30 C 718.46 570.25 722.47 570.25 726.49 570.24 C 726.64 570.96 726.95 572.39 727.10 573.11 C 722.71 573.26 718.31 573.36 713.93 573.24 C 714.07 572.51 714.35 571.03 714.48 570.30 Z" />
<path fill="#885252" opacity="1.00" d=" M 604.32 574.27 C 615.90 573.50 627.21 582.85 628.52 594.43 C 630.61 606.90 619.91 620.45 606.97 619.95 C 594.33 621.61 582.22 609.57 583.13 596.99 C 582.60 585.24 592.86 575.08 604.32 574.27 M 605.67 577.35 C 600.45 577.82 594.97 579.28 591.66 583.67 C 582.71 591.82 584.75 607.88 594.98 614.01 C 604.42 620.49 619.34 616.69 623.76 605.79 C 630.60 593.52 619.62 576.62 605.67 577.35 Z" />
<path fill="#885252" opacity="1.00" d=" M 775.33 574.28 C 787.21 573.46 798.90 583.38 799.48 595.42 C 801.24 608.19 789.76 620.55 776.96 619.91 C 764.41 621.17 753.29 609.32 754.12 596.99 C 753.67 585.37 763.88 574.99 775.33 574.28 M 776.29 577.28 C 766.40 577.84 756.15 586.37 757.17 596.99 C 755.78 607.75 766.31 618.17 776.96 616.95 C 787.92 617.86 796.52 607.34 796.93 597.08 C 796.51 586.39 787.30 576.69 776.29 577.28 Z" />
<path fill="#885252" opacity="1.00" d=" M 221.41 576.45 C 235.03 572.13 249.67 584.12 248.90 598.04 C 250.06 608.57 241.06 618.19 231.16 620.26 C 219.09 622.88 205.91 613.97 204.46 601.57 C 202.10 590.25 210.40 578.87 221.41 576.45 M 223.44 580.52 C 218.28 581.19 213.41 584.31 211.03 589.02 C 204.03 600.11 212.90 618.05 226.96 615.98 C 238.10 617.09 247.17 604.89 244.54 594.43 C 242.89 585.07 232.83 577.99 223.44 580.52 Z" />
<path fill="#885252" opacity="1.00" d=" M 415.40 576.43 C 428.68 572.19 444.53 582.87 443.95 597.03 C 445.33 606.47 438.51 615.61 430.01 619.03 C 419.27 623.93 405.57 617.56 401.17 606.86 C 395.24 595.14 402.77 579.55 415.40 576.43 M 417.43 580.47 C 409.50 581.88 403.25 590.00 403.88 598.00 C 403.08 607.73 412.22 616.81 422.01 615.93 C 433.97 616.95 443.41 603.01 438.92 592.11 C 436.36 583.24 426.24 578.09 417.43 580.47 Z" />
<path fill="#885252" opacity="1.00" d=" M 601.43 579.47 C 612.22 576.48 624.80 585.52 624.04 597.03 C 625.01 607.53 614.56 617.16 604.13 615.66 C 594.74 615.03 587.06 606.46 587.04 597.07 C 587.92 589.32 593.28 580.88 601.43 579.47 Z" />
<path fill="#885252" opacity="1.00" d=" M 772.43 579.47 C 780.41 577.36 789.69 581.33 793.09 588.95 C 798.45 598.45 792.81 612.53 781.99 614.99 C 772.54 618.40 761.04 611.76 759.00 601.99 C 755.86 592.50 762.74 581.32 772.43 579.47 Z" />
<path fill="#885252" opacity="1.00" d=" M 224.45 581.55 C 235.13 579.21 245.29 590.09 243.47 600.61 C 242.11 610.70 230.61 618.15 220.97 614.04 C 210.72 611.12 206.80 597.17 212.75 588.75 C 215.36 584.80 219.73 582.07 224.45 581.55 Z" />
<path fill="#885252" opacity="1.00" d=" M 418.44 581.47 C 427.18 579.05 436.68 586.06 438.35 594.67 C 440.95 604.89 431.39 615.83 420.97 614.95 C 414.37 614.81 408.51 609.97 406.03 604.02 C 402.00 594.79 408.69 583.19 418.44 581.47 Z" />
<path fill="#885252" opacity="1.00" d=" M 690.00 637.81 C 699.18 637.27 708.66 636.08 717.53 639.23 C 719.93 650.45 719.97 661.95 720.15 673.37 C 765.37 672.71 810.63 673.23 855.84 672.65 C 857.33 684.30 858.12 696.05 857.47 707.81 C 858.58 707.90 859.71 708.00 860.84 708.12 C 859.89 712.01 859.00 715.93 857.98 719.81 C 845.13 719.87 832.17 719.74 819.60 722.72 C 818.36 716.22 818.48 708.61 813.26 703.76 C 806.41 695.73 794.35 697.19 784.99 697.03 C 777.62 697.70 769.20 699.01 764.43 705.36 C 760.08 712.22 758.13 720.21 755.81 727.92 C 711.33 728.07 666.85 728.02 622.37 727.95 C 620.86 719.42 618.66 710.68 613.30 703.68 C 608.18 698.00 600.18 697.20 593.04 696.94 C 584.44 696.66 574.83 696.50 567.33 701.42 C 559.49 707.87 558.61 718.59 557.72 727.97 C 552.84 726.91 547.97 725.83 543.09 724.81 C 539.16 717.50 538.90 709.15 540.82 701.24 C 542.44 695.68 541.08 686.37 548.32 684.34 C 568.74 677.54 590.37 675.69 611.69 673.80 C 615.44 673.08 619.86 673.52 623.13 671.12 C 634.10 662.78 644.27 653.40 655.73 645.71 C 665.84 639.07 678.36 638.73 690.00 637.81 M 672.95 644.01 C 660.62 651.15 649.25 661.01 641.86 673.26 C 647.18 674.63 652.69 674.44 658.15 674.43 C 674.96 673.91 691.78 674.09 708.60 673.66 C 708.02 663.09 707.89 652.50 707.12 641.96 C 695.75 642.31 684.01 640.85 672.95 644.01 M 695.77 680.46 C 695.99 682.02 696.22 683.59 696.47 685.16 C 701.83 685.48 707.08 684.52 712.37 683.73 C 708.77 677.66 701.56 678.96 695.77 680.46 Z" />
<path fill="#885252" opacity="1.00" d=" M 847.85 646.06 C 906.23 645.91 964.61 646.05 1023.00 646.00 L 1023.00 725.00 C 977.48 724.81 931.96 725.40 886.45 724.68 C 873.32 698.60 860.83 672.21 847.85 646.06 M 877.01 671.65 C 876.98 679.10 876.98 686.54 877.00 694.00 C 878.73 694.00 882.18 693.98 883.91 693.97 C 883.99 691.49 884.08 689.02 884.19 686.57 C 887.68 685.71 891.69 685.85 894.76 683.74 C 898.23 680.16 896.85 672.05 891.21 671.66 C 886.50 670.93 881.71 671.55 877.01 671.65 M 900.03 671.69 C 899.99 679.12 899.97 686.56 899.98 694.01 C 901.81 693.99 905.46 693.95 907.28 693.93 C 907.43 686.49 907.02 679.04 906.93 671.63 C 904.62 671.56 902.32 671.58 900.03 671.69 M 913.74 674.74 C 910.83 678.65 910.83 684.15 912.43 688.61 C 914.59 694.24 921.79 695.83 927.06 694.15 C 931.03 693.13 932.41 688.81 933.82 685.47 C 929.24 685.24 925.42 687.85 921.17 688.94 C 917.74 685.99 919.62 681.11 919.57 677.20 C 924.31 678.27 929.09 679.30 934.00 679.15 C 932.18 675.79 930.02 671.83 925.89 671.10 C 921.68 670.71 916.46 671.01 913.74 674.74 M 937.40 671.51 C 937.04 679.03 936.74 686.56 936.33 694.09 C 938.60 693.93 940.89 693.79 943.20 693.66 C 944.31 690.73 945.53 687.87 947.07 685.15 C 948.79 688.05 950.38 691.04 952.02 694.00 C 954.79 693.92 957.58 693.85 960.39 693.79 C 957.83 689.19 955.09 684.71 952.57 680.11 C 955.10 677.40 957.62 674.68 960.15 671.97 C 957.56 671.63 954.60 671.05 952.14 670.85 C 949.48 673.60 946.84 676.37 944.23 679.16 C 943.94 676.55 943.68 673.96 943.44 671.39 C 941.42 671.42 939.41 671.47 937.40 671.51 M 972.66 671.78 C 973.98 678.61 970.82 687.81 977.17 692.81 C 981.53 695.23 987.54 695.50 991.81 692.79 C 997.69 687.65 993.94 678.48 995.23 671.82 C 992.94 671.53 990.64 671.28 988.35 671.11 C 988.14 676.80 987.98 682.49 987.86 688.21 C 985.69 688.47 983.51 688.70 981.35 688.90 C 981.14 683.11 980.98 677.33 980.86 671.57 C 978.12 671.56 975.39 671.68 972.66 671.78 M 999.31 671.24 C 999.17 678.82 999.27 686.40 999.76 693.98 C 1001.54 693.98 1005.12 693.98 1006.91 693.97 C 1007.00 691.52 1007.10 689.08 1007.22 686.65 C 1010.00 685.96 1012.96 685.67 1015.65 684.52 C 1020.04 682.29 1020.10 674.64 1015.60 672.52 C 1010.40 670.64 1004.70 671.38 999.31 671.24 M 961.40 683.32 C 961.20 684.87 961.01 686.42 960.84 687.98 C 963.42 687.98 968.59 687.98 971.17 687.98 C 970.96 686.38 970.77 684.78 970.58 683.20 C 967.54 683.21 964.38 683.21 961.40 683.32 Z" />
<path fill="#885252" opacity="1.00" d=" M 0.00 649.00 C 58.64 648.99 117.28 649.01 175.93 648.98 C 163.49 675.42 150.19 701.45 137.78 727.91 C 91.86 728.12 45.93 727.94 0.00 728.00 L 0.00 649.00 M 93.00 666.00 C 92.99 678.99 92.99 691.99 93.00 705.00 C 103.66 704.99 114.33 705.00 124.99 705.00 C 125.02 702.06 124.99 698.92 125.00 696.04 C 118.33 696.01 111.66 695.98 104.99 695.96 C 105.01 693.42 105.02 690.89 105.05 688.37 C 110.93 688.25 116.81 688.36 122.69 688.48 C 122.86 685.72 122.95 682.68 123.12 680.03 C 117.08 680.00 111.04 679.96 105.00 679.96 L 105.01 675.07 C 111.58 674.96 118.14 674.83 124.72 674.65 C 124.87 671.82 124.95 668.75 125.11 666.00 C 114.41 665.99 103.70 665.99 93.00 666.00 Z" />
<path fill="#885252" opacity="1.00" d=" M 321.41 653.46 C 344.62 648.98 368.50 648.32 392.05 649.71 C 405.61 650.23 418.85 653.52 431.85 657.19 C 444.10 660.92 455.51 666.85 467.35 671.65 C 479.19 676.47 492.18 676.16 504.67 677.50 C 506.52 679.60 507.10 682.44 508.07 685.01 C 510.40 690.17 507.20 695.54 508.28 700.86 C 508.56 705.12 511.83 708.19 514.88 710.78 C 516.15 718.50 514.50 729.20 505.92 731.88 C 494.34 734.76 482.35 735.55 470.54 737.08 C 470.05 728.98 468.66 720.68 464.37 713.64 C 454.35 697.92 427.79 696.33 416.91 711.93 C 411.62 719.79 412.35 729.87 411.76 738.95 C 360.97 739.72 310.18 740.30 259.40 741.00 C 258.41 728.15 256.99 713.43 246.09 704.88 C 234.48 697.60 217.56 698.96 207.97 708.98 C 199.99 717.59 200.07 729.83 199.78 740.86 C 188.83 738.31 177.54 737.49 166.65 734.63 C 170.63 723.47 165.74 710.18 173.26 700.24 C 179.40 692.41 189.92 690.55 198.89 687.86 C 220.44 682.89 242.69 682.47 264.60 680.20 C 271.23 677.93 276.66 673.10 282.81 669.85 C 295.13 663.25 307.49 656.07 321.41 653.46 M 331.41 657.43 C 311.97 661.23 294.86 671.99 278.60 682.79 C 301.91 681.36 325.26 680.99 348.58 679.77 C 351.57 671.10 355.22 662.67 358.17 653.98 C 349.21 654.78 340.20 655.44 331.41 657.43 M 367.22 653.89 C 365.66 662.58 364.01 671.25 362.80 680.00 C 382.19 680.35 401.57 679.26 420.96 678.87 C 416.65 672.29 412.73 665.42 407.63 659.41 C 406.32 658.09 404.40 657.77 402.69 657.31 C 391.03 654.86 379.08 654.44 367.22 653.89 M 415.96 661.62 C 419.29 667.44 422.71 673.22 426.12 679.00 C 434.55 678.99 442.97 678.88 451.41 678.67 C 440.43 671.43 428.33 666.00 415.96 661.62 M 402.81 691.00 C 408.49 693.56 415.55 693.50 420.23 688.98 C 415.11 684.11 405.71 683.42 402.81 691.00 M 336.42 688.37 C 334.58 689.50 333.30 691.27 331.91 692.87 C 336.90 695.93 342.88 696.17 348.12 693.57 C 348.13 692.50 348.13 690.35 348.14 689.28 C 344.25 688.75 340.33 688.33 336.42 688.37 Z" />
<path fill="#885252" opacity="1.00" d=" M 884.41 676.26 C 885.83 676.26 887.26 676.28 888.70 676.30 C 888.70 677.72 888.72 679.15 888.74 680.59 C 887.11 680.77 885.49 680.94 883.88 681.12 C 884.04 679.49 884.21 677.87 884.41 676.26 Z" />
<path fill="#885252" opacity="1.00" d=" M 1007.64 675.06 C 1009.24 676.29 1010.85 677.54 1012.23 679.04 C 1010.74 680.19 1009.07 681.07 1007.42 681.95 L 1007.64 675.06 Z" />
<path fill="#885252" opacity="1.00" d=" M 696.22 682.62 C 700.17 680.41 704.71 680.19 709.12 680.69 C 708.96 681.53 708.64 683.20 708.47 684.03 C 704.34 683.88 700.24 683.61 696.22 682.62 Z" />
<path fill="#885252" opacity="1.00" d=" M 404.00 689.22 C 408.04 688.00 412.23 687.33 416.42 686.79 C 416.62 687.76 417.02 689.71 417.22 690.68 C 412.77 691.13 407.96 691.76 404.00 689.22 Z" />
<path fill="#885252" opacity="1.00" d=" M 333.91 692.91 C 337.29 688.18 343.41 689.05 348.05 691.30 C 343.77 693.77 338.64 693.71 333.91 692.91 Z" />
<path fill="#885252" opacity="1.00" d=" M 227.40 702.46 C 240.51 700.82 253.94 711.58 254.26 725.01 C 256.15 738.48 244.26 751.37 230.88 751.86 C 218.69 752.37 207.00 742.59 205.49 730.41 C 203.17 717.18 214.14 703.58 227.40 702.46 M 226.44 707.48 C 213.56 709.01 205.88 724.75 212.04 735.96 C 216.62 746.20 230.71 750.20 239.95 743.93 C 246.00 740.95 249.02 734.25 249.94 727.89 C 250.55 715.93 238.32 704.65 226.44 707.48 Z" />
<path fill="#885252" opacity="1.00" d=" M 434.43 703.52 C 448.20 699.61 463.54 710.43 464.40 724.61 C 466.40 736.14 458.29 748.18 447.01 750.98 C 434.67 755.17 419.94 747.00 416.45 734.59 C 411.98 721.62 421.05 706.09 434.43 703.52 M 434.42 708.47 C 424.88 710.24 418.71 721.37 420.54 730.55 C 421.62 740.18 431.30 748.02 440.98 746.98 C 454.66 747.64 464.49 730.82 458.00 719.00 C 454.16 710.07 443.73 705.56 434.42 708.47 Z" />
<path fill="#885252" opacity="1.00" d=" M 587.40 703.37 C 596.50 702.13 606.63 706.75 610.94 715.06 C 617.48 724.86 614.77 739.36 605.72 746.70 C 597.37 754.01 583.53 754.13 575.14 746.79 C 563.94 739.37 562.45 721.28 571.66 711.67 C 575.64 707.10 581.32 703.95 587.40 703.37 M 585.47 712.56 C 571.68 715.05 569.72 737.24 583.01 741.98 C 592.59 748.07 606.97 739.28 605.95 728.01 C 607.35 717.20 595.27 709.27 585.47 712.56 Z" />
<path fill="#885252" opacity="1.00" d=" M 784.45 703.48 C 798.24 700.83 812.41 713.09 811.93 727.04 C 813.38 739.74 801.94 752.66 788.96 751.89 C 776.86 753.38 765.09 743.40 763.43 731.57 C 760.74 718.44 771.31 704.73 784.45 703.48 M 782.44 712.47 C 773.94 715.20 769.02 725.82 772.94 734.07 C 776.13 741.50 785.06 746.29 792.89 742.94 C 803.97 740.22 807.47 724.21 799.33 716.67 C 795.19 711.76 788.35 711.02 782.44 712.47 Z" />
<path fill="#885252" opacity="1.00" d=" M 224.43 709.47 C 229.98 708.41 236.33 708.09 240.77 712.24 C 250.19 718.43 250.63 733.93 241.85 740.86 C 232.44 750.05 213.99 744.23 211.89 731.05 C 209.43 722.07 215.56 711.98 224.43 709.47 Z" />
<path fill="#885252" opacity="1.00" d=" M 436.42 709.46 C 444.63 707.32 453.60 712.45 457.01 719.96 C 460.99 729.49 456.35 742.15 445.83 744.83 C 434.99 748.97 420.95 739.98 422.02 727.97 C 420.81 719.23 427.98 710.87 436.42 709.46 Z" />
<path fill="#885252" opacity="1.00" d=" M 586.46 713.53 C 596.96 710.09 607.09 721.15 604.48 731.39 C 602.12 742.40 585.75 745.97 578.74 737.26 C 571.41 729.68 576.40 715.62 586.46 713.53 Z" />
<path fill="#885252" opacity="1.00" d=" M 784.43 713.43 C 793.14 710.65 803.19 718.85 801.97 728.00 C 803.03 736.19 795.02 743.39 787.03 742.08 C 777.68 742.97 770.97 731.96 773.52 723.59 C 775.47 718.94 779.14 714.21 784.43 713.43 Z" />
</g>
</svg>
