<svg xmlns="http://www.w3.org/2000/svg" xmlns:xlink="http://www.w3.org/1999/xlink" width="83px" height="50px" viewBox="0 0 83 50"><title>Logo</title><g id="U5" stroke="none" stroke-width="1" fill="none" fill-rule="evenodd"><g id="01a-U5-LP-Desktop-L-1800px-(1200px)-kleiner" transform="translate(-80.000000, -30.000000)" fill="#3B3939"><g id="Logo" transform="translate(80.000000, 30.000000)"><path d="M78.2805468,-0.000113636364 L57.1452713,-0.000113636364 C55.1891694,-0.000113636364 53.6023375,1.57602273 53.6023375,3.52147727 L53.6023375,7.77261364 C53.6023375,9.71693182 55.1891694,11.2930682 57.1452713,11.2930682 L78.2805468,11.2930682 C80.237792,11.2930682 81.8234807,9.71693182 81.8234807,7.77261364 L81.8234807,3.52147727 C81.8234807,1.57602273 80.237792,-0.000113636364 78.2805468,-0.000113636364" id="Fill-1"></path><path d="M78.2805468,22.5867045 L57.1452713,22.5867045 C55.1891694,22.5867045 53.6023375,24.1639773 53.6023375,26.1082955 L53.6023375,30.3594318 C53.6023375,32.30375 55.1891694,33.8798864 57.1452713,33.8798864 L78.2805468,33.8798864 C80.237792,33.8798864 81.8234807,32.30375 81.8234807,30.3594318 L81.8234807,26.1082955 C81.8234807,24.1639773 80.237792,22.5867045 78.2805468,22.5867045" id="Fill-3"></path><path d="M50.0610041,11.2935227 L31.7632769,11.2935227 C29.8060317,11.2935227 28.220343,9.71625 28.220343,7.77193182 L28.220343,3.52079545 C28.220343,1.57647727 26.6346543,0.000340909091 24.6785523,0.000340909091 L3.54327686,0.000340909091 C1.58603168,0.000340909091 0.000342975207,1.57647727 0.000342975207,3.52079545 L0.000342975207,7.77193182 C0.000342975207,9.71625 1.58603168,11.2935227 3.54327686,11.2935227 L24.6774091,11.2935227 L24.6785523,11.2935227 L24.6796956,11.2935227 C26.6357975,11.2935227 28.220343,12.8696591 28.220343,14.8139773 L28.220343,19.0651136 C28.220343,21.0105682 26.6346543,22.5867045 24.6785523,22.5867045 L3.54327686,22.5867045 C1.58603168,22.5867045 0.000342975207,24.1639773 0.000342975207,26.1082955 L0.000342975207,30.3594318 C0.000342975207,32.30375 1.58603168,33.87875 3.54327686,33.87875 L24.6785523,33.87875 C26.6346543,33.87875 28.220343,32.30375 28.220343,30.3594318 L28.220343,26.1082955 C28.220343,24.1639773 29.8060317,22.5867045 31.7632769,22.5867045 L50.0610041,22.5867045 C52.0171061,22.5867045 53.6027948,21.0094318 53.6027948,19.0651136 L53.6027948,14.8139773 C53.6027948,12.8696591 52.0171061,11.2935227 50.0610041,11.2935227" id="Fill-5"></path><path d="M47.9677121,42.8348864 L39.5373815,42.8348864 C37.6510179,42.8348864 37.008511,43.8257955 37.008511,45.0701136 L37.008511,49.8144318 C37.008511,49.8144318 36.9925055,49.9155682 37.0931116,49.9155682 L38.7542548,49.9155682 C38.8480014,49.9155682 38.8399986,49.8326136 38.8388554,49.8201136 L38.8388554,48.0757955 L46.886197,48.0757955 C46.9159215,48.0757955 46.977657,48.0667045 46.977657,47.99625 L46.977657,46.50875 C46.977657,46.4360227 46.9102052,46.4292045 46.8827672,46.4292045 L38.8388554,46.4292045 L38.8388554,44.9121591 C38.8388554,44.5939773 38.982905,44.4826136 39.3338829,44.4826136 L48.1986488,44.4826136 C48.55077,44.4826136 48.665095,44.5939773 48.665095,44.9121591 L48.665095,49.8280682 L48.6662383,49.8280682 C48.6662383,49.8564773 48.674241,49.9155682 48.7519821,49.9155682 L50.4108388,49.9155682 C50.4874366,49.9155682 50.4954394,49.8564773 50.4954394,49.8280682 L50.4954394,45.0701136 C50.4954394,43.8257955 49.8540758,42.8348864 47.9677121,42.8348864" id="Fill-7"></path><path d="M10.9594298,42.8348864 L2.52909917,42.8348864 C0.642735537,42.8348864 0.00137190083,43.8257955 0.00137190083,45.0701136 L0.00137190083,49.8144318 C0.00137190083,49.8144318 -0.0146336088,49.9155682 0.0848292011,49.9155682 L1.74597245,49.9155682 C1.83857576,49.9155682 1.8328595,49.83375 1.830573,49.82125 L1.830573,48.0757955 L9.8779146,48.0757955 C9.90763912,48.0757955 9.96937466,48.0667045 9.96937466,47.99625 L9.96937466,46.50875 C9.96937466,46.4360227 9.90192287,46.4292045 9.87448485,46.4292045 L1.830573,46.4292045 L1.830573,44.9121591 C1.830573,44.5939773 1.97462259,44.4826136 2.3267438,44.4826136 L6.74998072,44.4814773 L11.1903664,44.4826136 C11.5436309,44.4826136 11.6579559,44.5939773 11.6579559,44.9121591 L11.6579559,49.8280682 C11.6579559,49.8564773 11.6671019,49.9155682 11.7436997,49.9155682 L13.4025565,49.9155682 C13.4802975,49.9155682 13.487157,49.8564773 13.4883003,49.8280682 L13.4883003,45.0701136 C13.4883003,43.8257955 12.8457934,42.8348864 10.9594298,42.8348864" id="Fill-9"></path><path d="M17.6894036,42.8348864 L17.6905468,42.8348864 L16.0294036,42.8348864 L16.0305468,42.8348864 C15.9505193,42.8348864 15.944803,42.8985227 15.944803,42.9257955 L15.944803,49.8280682 C15.944803,49.8564773 15.9528058,49.9155682 16.0305468,49.9155682 L17.6894036,49.9155682 C17.7671446,49.9155682 17.7740041,49.8542045 17.7740041,49.8257955 L17.7740041,42.9223864 C17.7740041,42.8951136 17.7660014,42.8348864 17.6894036,42.8348864" id="Fill-11"></path><path d="M80.3817273,45.5703409 C80.3497163,45.5703409 70.7121129,45.5714773 70.7121129,45.5714773 C70.5314793,45.5714773 70.4503085,45.5032955 70.4503085,45.3453409 C70.4503085,45.2294318 70.4491653,45.0453409 70.4491653,44.7351136 C70.4491653,44.5589773 70.5486281,44.4851136 70.748697,44.4851136 C70.8744545,44.4851136 80.9384904,44.4817045 81.971989,44.4817045 C82.0005702,44.4817045 82.063449,44.4726136 82.063449,44.4021591 L82.063449,42.9157955 C82.063449,42.8419318 81.9959972,42.8351136 81.9685592,42.8351136 L70.5429118,42.8351136 C69.3379256,42.8351136 68.6199642,43.5601136 68.6199642,44.5146591 L68.6199642,45.5055682 C68.6199642,46.6442045 69.1721543,47.2180682 70.8733113,47.2180682 C70.8733113,47.2180682 80.1770854,47.2169318 80.3885868,47.2169318 C80.5589311,47.2169318 80.6218099,47.3089773 80.6218099,47.4180682 L80.6218099,48.0510227 C80.6218099,48.2032955 80.5474986,48.2692045 80.3245647,48.2692045 L68.9057769,48.2692045 C68.8771956,48.2692045 68.8131736,48.2782955 68.8131736,48.3498864 L68.8131736,49.83625 L68.8131736,49.8351136 C68.8131736,49.9101136 68.8794821,49.9157955 68.9092066,49.9157955 L80.2353912,49.9157955 C81.4861074,49.9157955 82.4498678,49.4453409 82.4498678,48.1567045 L82.4498678,47.2282955 C82.4498678,46.19875 81.7181873,45.5703409 80.3817273,45.5703409" id="Fill-13"></path><path d="M66.3579284,42.8348864 L66.3590716,42.8348864 L64.6979284,42.8348864 L64.6990716,42.8348864 C64.6201873,42.8348864 64.6144711,42.8973864 64.6144711,42.9246591 L64.6144711,45.9007955 C64.6144711,46.2201136 64.4990028,46.3507955 64.089719,46.3507955 L55.0626116,46.3507955 C54.6521846,46.3507955 54.5378595,46.2201136 54.5378595,45.9007955 L54.5378595,42.9223864 L54.5378595,42.9235227 C54.5378595,42.8951136 54.5287135,42.8348864 54.4521157,42.8348864 L54.453259,42.8348864 L52.7921157,42.8348864 L52.793259,42.8348864 C52.7155179,42.8348864 52.7086584,42.89625 52.7086584,42.9235227 L52.7086584,45.7485227 C52.7086584,46.9928409 53.350022,47.98375 55.2352424,47.98375 L58.6615647,47.98375 L58.6615647,49.8292045 C58.6615647,49.8576136 58.6695675,49.9155682 58.7461653,49.9155682 L60.4061653,49.9155682 C60.4827631,49.9155682 60.4907658,49.8553409 60.4907658,49.8269318 L60.4907658,47.98375 L63.9148017,47.98375 C65.8023085,47.98375 66.4425289,46.9928409 66.4425289,45.7485227 L66.4425289,42.9235227 C66.4425289,42.8951136 66.4345262,42.8348864 66.3579284,42.8348864" id="Fill-15"></path><path d="M26.643343,46.9442045 L28.2999132,46.9442045 C28.376511,46.9442045 28.3833705,46.88625 28.3833705,46.8589773 L28.3833705,42.93625 C28.3822273,42.9055682 28.3730813,42.8555682 28.3010565,42.8555682 L26.6410565,42.8555682 L26.6421997,42.8555682 C26.5690317,42.8555682 26.5598857,42.9078409 26.5587424,42.9385227 L26.5587424,46.8567045 C26.5587424,46.8839773 26.5678884,46.9442045 26.643343,46.9442045" id="Fill-17"></path><path d="M34.6294063,42.8560227 L34.6305496,42.8560227 L32.9694063,42.8560227 L32.9705496,42.8560227 C32.890522,42.8560227 32.8848058,42.9196591 32.8848058,42.9457955 L32.8848058,47.8196591 C32.8848058,48.1367045 32.7693375,48.2696591 32.3600537,48.2696591 L22.5841171,48.2696591 C22.1725468,48.2696591 22.059365,48.1367045 22.059365,47.8196591 L22.059365,42.9423864 C22.0582218,42.9139773 22.0490758,42.8560227 21.9736212,42.8560227 L21.9747645,42.8560227 L20.3147645,42.8560227 C20.2358802,42.8560227 20.2290207,42.9196591 20.2290207,42.9457955 L20.2290207,47.6810227 C20.2290207,48.9253409 20.8703843,49.91625 22.7567479,49.91625 L32.1851364,49.91625 C34.0726433,49.91625 34.7140069,48.9253409 34.7140069,47.6810227 L34.7140069,42.9401136 C34.7128636,42.9117045 34.7037176,42.8560227 34.6294063,42.8560227" id="Fill-19"></path></g></g></g></svg>