<svg width="150" height="23" viewBox="0 0 150 23" fill="none" xmlns="http://www.w3.org/2000/svg">
<path fill-rule="evenodd" clip-rule="evenodd" d="M36.7222 17.0476H38.754V9.39683C38.754 6.66667 37.1825 5.03968 34.5556 5.03968C32.4762 5.03968 31.4444 6.14286 30.9524 7.07937V0H28.9127V17.0476H30.9524V10.5873C30.9524 8.29365 32.1349 6.86508 34.0317 6.86508C35.7937 6.86508 36.7222 7.84127 36.7222 9.69048V17.0476ZM12.4683 0.31746C13.3333 0.31746 13.8492 0.84127 13.8492 1.70635C13.8492 2.5873 13.3333 3.11111 12.4683 3.11111C11.5952 3.11111 11.0873 2.60317 11.0873 1.70635C11.0873 0.825397 11.5873 0.31746 12.4683 0.31746ZM0 17.0476H9.84127V15.1032H2.10317V0.912698H0V17.0476ZM13.4841 5.2381H11.4444V17.0476H13.4841V5.2381ZM24.2063 11.1587C24.2063 13.2222 23.3413 15.4286 20.9206 15.4286C19.9365 15.4286 17.6349 15.0159 17.6349 11.1587C17.6349 8.42857 18.8333 6.86508 20.9206 6.86508C23.3413 6.86508 24.2063 9.07936 24.2063 11.1587ZM26.1984 5.2381V17.6825C26.1984 20.6032 24.1429 22.5 20.9603 22.4921C18.0635 22.4921 15.9841 20.8413 15.9127 18.4762H17.881C17.9762 19.5635 18.8333 20.7302 20.9603 20.7302C22.9603 20.7302 24.1508 19.5714 24.1508 17.627V15.3651H24.119C23.7222 16.0635 22.7063 17.254 20.5952 17.254C17.5238 17.254 15.5952 14.9127 15.5714 11.1508C15.5952 7.31746 17.4762 5.03175 20.5952 5.03175C22.7143 5.03175 23.7143 6.22222 24.127 6.92063H24.1587L24.4206 5.2381H26.1984ZM46.7857 17.0476H44.9921C42.8413 17.0476 41.8413 16.0317 41.8413 13.8571V6.97619H39.8968V5.2381H41.8889V2.10317H43.881V5.2381H46.7381V6.98413H43.881V13.6905C43.881 14.7778 44.3254 15.2381 45.3571 15.2381H46.7857V17.0476ZM59.0714 5.54762L59.0794 5.2381H56.9683L53.5317 14.4127H53.5159L49.9762 5.2381H47.8175V5.52381L52.5079 16.8492L52.5238 16.8968L50.5397 21.9841V22.2937H52.5794L59.0714 5.54762ZM64.8492 6.86508C62.9206 6.86508 61.754 8.03175 61.6587 10.0714H67.8571C67.8413 8.06349 66.7143 6.86508 64.8492 6.86508ZM61.6349 11.7857H69.9683V10.7857C69.9683 7.28571 67.9603 5.03175 64.8571 5.03175C61.5079 5.03175 59.5159 7.31746 59.5159 11.1508C59.5159 14.8571 61.619 17.254 64.881 17.254C67.4683 17.254 69.4921 15.754 69.8095 13.6111V13.6032H67.7698C67.4603 14.7778 66.4365 15.4206 64.881 15.4206C62.8571 15.4286 61.6508 14.0635 61.6349 11.7857ZM75.7778 15.5397C77.627 15.5397 79.0159 14.2143 79.0159 12.4603V11.5159H76.1905C74.3413 11.5159 73.3651 12.2222 73.3651 13.5635C73.3651 14.8175 74.246 15.5397 75.7778 15.5397ZM79.2698 17.0476H81.0079V9.11905C81.0079 6.63492 79.1905 5.03175 76.373 5.03175C73.7222 5.03175 71.873 6.5873 71.873 8.81746H73.8413C73.8651 7.5873 74.8571 6.79365 76.373 6.79365C78.0317 6.79365 79.0159 7.68254 79.0159 9.16667V9.86508H76.1905C73.127 9.86508 71.3016 11.254 71.3016 13.5873C71.3016 15.754 73 17.2619 75.4286 17.2619C77.0873 17.2619 78.4127 16.5476 79.0873 15.3492H79.1111L79.2698 17.0476ZM90.0476 5.10317V7.07143V7.07937H89.0794C86.9762 7.07937 85.9127 8.50794 85.9127 11.3254V17.0556H83.873V5.24603H85.6508L85.8175 7.26984H85.8492C86.2936 5.96032 87.5 5.10317 88.9365 5.10317H90.0476Z" fill="currentColor"></path>
<path d="M141.714 3.27784C139.016 3.27784 134.5 4.01593 128.127 9.88101C123.381 14.1032 120.984 16.9445 116.817 16.9445C112.452 16.9445 110.706 13.5318 110.706 11.2064C110.706 7.92069 112.992 4.91276 117.031 4.91276C120.627 4.91276 122.944 6.50799 126.293 9.19053C126.325 9.21434 126.357 9.23022 126.397 9.23022V9.23022C126.444 9.23022 126.484 9.21434 126.516 9.1826L127.277 8.42069C127.301 8.39688 127.317 8.36514 127.317 8.32546V8.32546C127.317 8.28577 127.301 8.25403 127.277 8.23022C124.762 5.84926 121.127 3.26196 116.976 3.26196C111.881 3.26196 108.706 6.89688 108.706 11.3334C108.706 15.7302 112.333 19.008 116.817 19.008C119.516 19.008 124.031 18.2699 130.404 12.4048C135.15 8.1826 137.547 5.34133 141.714 5.34133C146.079 5.34133 147.825 8.75403 147.825 11.0794C147.825 14.3651 145.539 17.3731 141.5 17.3731C137.904 17.3731 135.587 15.7778 132.238 13.0953C132.206 13.0715 132.174 13.0556 132.135 13.0556V13.0556C132.087 13.0556 132.047 13.0715 132.016 13.1032L131.254 13.8651C131.23 13.8889 131.214 13.9207 131.214 13.9604V13.9604C131.214 14.0001 131.23 14.0318 131.254 14.0556C133.77 16.4366 137.404 19.0239 141.555 19.0239C146.65 19.0239 149.825 15.3889 149.825 10.9524C149.833 6.55561 146.198 3.27784 141.714 3.27784Z" fill="currentColor"></path>
</svg>