<svg id="SvgjsSvg1001" width="288" height="288" xmlns="http://www.w3.org/2000/svg" version="1.1" xmlns:xlink="http://www.w3.org/1999/xlink" xmlns:svgjs="http://svgjs.com/svgjs"><defs id="SvgjsDefs1002"></defs><g id="SvgjsG1008" transform="matrix(0.9167,0,0,0.9167,11.995200000000011,11.995440229797367)"><svg xmlns="http://www.w3.org/2000/svg" enable-background="new 0 0 49.833 49.833" viewBox="0 0 49.833 49.833" width="288" height="288"><path d="M49.833,24.917c0,13.739-11.178,24.917-24.916,24.917c-0.828,0-1.5-0.671-1.5-1.5V36.259
	c-5.606-0.739-9.952-5.537-9.952-11.342c0-0.829,0.672-1.5,1.5-1.5h3.073V13.94c0-0.829,0.672-1.5,1.5-1.5
	c0.828,0,1.5,0.671,1.5,1.5v9.477h7.757V13.94c0-0.829,0.672-1.5,1.5-1.5c0.828,0,1.5,0.671,1.5,1.5v9.477h3.074
	c0.828,0,1.5,0.671,1.5,1.5c0,5.805-4.346,10.603-9.952,11.342v10.524c11.388-0.773,20.416-10.285,20.416-21.866
	C46.833,12.832,37.002,3,24.917,3C12.832,3,3,12.832,3,24.917c0,4.599,1.408,9,4.071,12.727c0.481,0.674,0.325,1.611-0.349,2.092
	c-0.675,0.482-1.611,0.326-2.093-0.348C1.602,35.148,0,30.145,0,24.917C0,11.178,11.178,0,24.917,0
	C38.655,0,49.833,11.178,49.833,24.917z" fill="#000000" class="color000 svgShape"></path></svg></g></svg>